<svg width="1401" height="26" viewBox="0 0 1401 26" fill="none" xmlns="http://www.w3.org/2000/svg">
<path d="M0 6.68395C0 6.404 0.22 6.15405 0.53 6.15405H2.37C2.65 6.15405 2.9 6.404 2.9 6.68395V23.1107H10.47C10.78 23.1107 11 23.3607 11 23.6406V25.1803C11 25.4602 10.78 25.7102 10.47 25.7102H0.53C0.22 25.7102 0 25.4602 0 25.1803V6.68395Z" fill="#FFFF1B"/>
<path d="M12.7604 24.9803L21.3404 6.18396C21.4204 6.014 21.6804 5.87402 21.8204 5.87402H22.1004C22.2404 5.87402 22.4904 6.014 22.5704 6.18396L31.0904 24.9902C31.2604 25.3502 31.0304 25.7201 30.6104 25.7201H28.8504C28.5204 25.7201 28.3204 25.5501 28.2104 25.3002L26.4804 21.4709H17.3404C16.7804 22.7607 16.1904 24.0104 15.6404 25.3002C15.5604 25.5002 15.3304 25.7201 15.0004 25.7201H13.2404C12.8204 25.7201 12.6004 25.3602 12.7604 24.9902V24.9803ZM25.4204 19.0614L21.9804 11.4029H21.8404L18.4304 19.0614H25.4204Z" fill="#FFFF1B"/>
<path d="M41.1497 6.68395C41.1497 6.404 41.3696 6.15405 41.6796 6.15405H43.5196C43.7996 6.15405 44.0496 6.404 44.0496 6.68395V23.1107H51.6196C51.9296 23.1107 52.1497 23.3607 52.1497 23.6406V25.1803C52.1497 25.4602 51.9296 25.7102 51.6196 25.7102H41.6696C41.3596 25.7102 41.1396 25.4602 41.1396 25.1803V6.68395H41.1497Z" fill="#FFFF1B"/>
<path d="M53.9098 24.9802L62.4898 6.17395C62.5698 6.00399 62.8298 5.86401 62.9698 5.86401H63.2498C63.3898 5.86401 63.6398 6.00399 63.7198 6.17395L72.2398 24.9802C72.4098 25.3402 72.1798 25.7101 71.7598 25.7101H69.9998C69.6698 25.7101 69.4698 25.5401 69.3598 25.2902L67.6298 21.4609H58.4898C57.9298 22.7507 57.3398 24.0004 56.7898 25.2902C56.7098 25.4901 56.4798 25.7101 56.1498 25.7101H54.3898C53.9698 25.7101 53.7498 25.3502 53.9098 24.9802ZM66.5698 19.0614L63.1298 11.4029H62.9898L59.5798 19.0614H66.5698Z" fill="#FFFF1B"/>
<path d="M75.1699 6.37392C75.1699 6.09398 75.4199 5.87402 75.6999 5.87402H76.3999L88.5299 19.9013H88.5599V6.68386C88.5599 6.40392 88.7799 6.15397 89.0899 6.15397H90.8799C91.1599 6.15397 91.4099 6.40392 91.4099 6.68386V25.4902C91.4099 25.7701 91.1599 25.9901 90.8799 25.9901H90.1499L78.0199 11.5729H77.9899V25.1802C77.9899 25.4602 77.7699 25.7101 77.4599 25.7101H75.6999C75.4199 25.7101 75.1699 25.4602 75.1699 25.1802V6.37392Z" fill="#FFFF1B"/>
<path d="M99.4999 8.78355H94.9499C94.6399 8.78355 94.4199 8.53359 94.4199 8.25365V6.69396C94.4199 6.41401 94.6399 6.16406 94.9499 6.16406H106.97C107.28 6.16406 107.5 6.41401 107.5 6.69396V8.25365C107.5 8.53359 107.28 8.78355 106.97 8.78355H102.41V25.1803C102.41 25.4603 102.16 25.7102 101.88 25.7102H100.04C99.7599 25.7102 99.5099 25.4603 99.5099 25.1803V8.78355H99.4999Z" fill="#FFFF1B"/>
<path d="M110.48 6.68395C110.48 6.404 110.7 6.15405 111.01 6.15405H122.19C122.5 6.15405 122.72 6.404 122.72 6.68395V8.24364C122.72 8.52359 122.5 8.77354 122.19 8.77354H113.36V14.4724H120.82C121.1 14.4724 121.35 14.7224 121.35 15.0023V16.572C121.35 16.8819 121.1 17.1019 120.82 17.1019H113.36V23.1107H122.19C122.5 23.1107 122.72 23.3607 122.72 23.6406V25.1803C122.72 25.4602 122.5 25.7102 122.19 25.7102H111.01C110.7 25.7102 110.48 25.4602 110.48 25.1803V6.68395Z" fill="#FFFF1B"/>
<path d="M126.74 6.68395C126.74 6.404 126.96 6.15405 127.27 6.15405H134.87C138.22 6.15405 140.96 8.80353 140.96 12.1329C140.96 14.7024 139.26 16.8219 136.82 17.8018L140.65 24.9004C140.85 25.2603 140.65 25.7102 140.17 25.7102H137.99C137.77 25.7102 137.6 25.5702 137.54 25.4602L133.82 18.0517H129.6V25.1803C129.6 25.4602 129.35 25.7102 129.07 25.7102H127.25C126.94 25.7102 126.72 25.4602 126.72 25.1803V6.68395H126.74ZM134.65 15.6522C136.47 15.6522 138.06 14.1125 138.06 12.1829C138.06 10.3632 136.47 8.85352 134.65 8.85352H129.68V15.6422H134.65V15.6522Z" fill="#FFFF1B"/>
<path d="M145.31 6.37392C145.31 6.09398 145.56 5.87402 145.84 5.87402H146.54L158.67 19.9013H158.7V6.68386C158.7 6.40392 158.92 6.15397 159.23 6.15397H161.02C161.3 6.15397 161.55 6.40392 161.55 6.68386V25.4902C161.55 25.7701 161.3 25.9901 161.02 25.9901H160.29L148.16 11.5729H148.13V25.1802C148.13 25.4602 147.91 25.7101 147.6 25.7101H145.84C145.56 25.7101 145.31 25.4602 145.31 25.1802V6.37392Z" fill="#FFFF1B"/>
<path d="M166.92 6.68395C166.92 6.404 167.14 6.15405 167.45 6.15405H178.63C178.94 6.15405 179.16 6.404 179.16 6.68395V8.24364C179.16 8.52359 178.94 8.77354 178.63 8.77354H169.8V14.4724H177.26C177.54 14.4724 177.79 14.7224 177.79 15.0023V16.572C177.79 16.8819 177.54 17.1019 177.26 17.1019H169.8V23.1107H178.63C178.94 23.1107 179.16 23.3607 179.16 23.6406V25.1803C179.16 25.4602 178.94 25.7102 178.63 25.7102H167.45C167.14 25.7102 166.92 25.4602 166.92 25.1803V6.68395Z" fill="#FFFF1B"/>
<path d="M194.06 6.68395C194.06 6.404 194.28 6.15405 194.56 6.15405H200.99C206.38 6.15405 210.8 10.5432 210.8 15.9021C210.8 21.2611 206.38 25.7102 200.99 25.7102H194.56C194.28 25.7102 194.06 25.4602 194.06 25.1803V6.68395ZM200.6 23.0607C204.71 23.0607 207.7 20.0413 207.7 15.9121C207.7 11.7829 204.71 8.81353 200.6 8.81353H196.91V23.0607H200.6Z" fill="#FFFF1B"/>
<path d="M220.29 6.68395C220.29 6.404 220.54 6.15405 220.82 6.15405H222.66C222.97 6.15405 223.19 6.404 223.19 6.68395V14.4824H233.42V6.68395C233.42 6.404 233.64 6.15405 233.95 6.15405H235.79C236.07 6.15405 236.32 6.404 236.32 6.68395V25.1803C236.32 25.4602 236.07 25.7102 235.79 25.7102H233.95C233.64 25.7102 233.42 25.4602 233.42 25.1803V17.1019H223.19V25.1803C223.19 25.4602 222.97 25.7102 222.66 25.7102H220.82C220.54 25.7102 220.29 25.4602 220.29 25.1803V6.68395Z" fill="#FFFF1B"/>
<path d="M241.71 6.68395C241.71 6.404 241.93 6.15405 242.24 6.15405H253.42C253.73 6.15405 253.95 6.404 253.95 6.68395V8.24364C253.95 8.52359 253.73 8.77354 253.42 8.77354H244.59V14.4724H252.05C252.33 14.4724 252.58 14.7224 252.58 15.0023V16.572C252.58 16.8819 252.33 17.1019 252.05 17.1019H244.59V23.1107H253.42C253.73 23.1107 253.95 23.3607 253.95 23.6406V25.1803C253.95 25.4602 253.73 25.7102 253.42 25.7102H242.24C241.93 25.7102 241.71 25.4602 241.71 25.1803V6.68395Z" fill="#FFFF1B"/>
<path d="M257.97 6.68395C257.97 6.404 258.19 6.15405 258.5 6.15405H266.1C269.45 6.15405 272.19 8.80353 272.19 12.1329C272.19 14.7024 270.49 16.8219 268.05 17.8018L271.88 24.9004C272.08 25.2603 271.88 25.7102 271.4 25.7102H269.22C269 25.7102 268.83 25.5702 268.77 25.4602L265.05 18.0517H260.83V25.1803C260.83 25.4602 260.58 25.7102 260.3 25.7102H258.48C258.17 25.7102 257.95 25.4602 257.95 25.1803V6.68395H257.97ZM265.88 15.6522C267.7 15.6522 269.29 14.1125 269.29 12.1829C269.29 10.3632 267.7 8.85352 265.88 8.85352H260.91V15.6422H265.88V15.6522Z" fill="#FFFF1B"/>
<path d="M278.53 6.29394C278.59 6.07398 278.81 5.87402 279.03 5.87402H279.48C279.65 5.87402 279.9 6.014 279.96 6.18396L285.8 20.4611H285.91L291.72 6.18396C291.78 6.014 292 5.87402 292.19 5.87402H292.64C292.86 5.87402 293.09 6.07398 293.14 6.29394L296.58 25.0702C296.66 25.4602 296.47 25.7101 296.08 25.7101H294.26C294.01 25.7101 293.78 25.5101 293.73 25.3202L291.66 12.8326H291.58L286.55 25.6801C286.49 25.8501 286.33 25.9901 286.07 25.9901H285.57C285.35 25.9901 285.15 25.8501 285.1 25.6801L280.04 12.8326H279.93L277.92 25.3202C277.89 25.5201 277.64 25.7101 277.42 25.7101H275.6C275.21 25.7101 275.01 25.4602 275.07 25.0702L278.54 6.29394H278.53Z" fill="#FFFF1B"/>
<path d="M300.62 6.68379C300.62 6.40384 300.84 6.15389 301.15 6.15389H312.33C312.64 6.15389 312.86 6.40384 312.86 6.68379V8.24348C312.86 8.52342 312.64 8.77337 312.33 8.77337H303.5V14.4722H310.96C311.24 14.4722 311.49 14.7222 311.49 15.0021V16.5718C311.49 16.8818 311.24 17.1017 310.96 17.1017H303.5V23.1105H312.33C312.64 23.1105 312.86 23.3605 312.86 23.6404V25.1801C312.86 25.4601 312.64 25.71 312.33 25.71H301.15C300.84 25.71 300.62 25.4601 300.62 25.1801V6.68379ZM309.27 3.94433L309.66 3.16448C309.77 2.94452 309.63 2.71457 309.49 2.63458L305.1 0.0950861C304.93 -0.0148922 304.51 -0.0748803 304.37 0.17507L303.73 1.40483C303.56 1.68477 303.67 1.96472 303.9 2.0747L308.6 4.0843C308.96 4.25427 309.16 4.19428 309.27 3.94433Z" fill="#FFFF1B"/>
<path d="M214.7 11.9628L213.83 11.9428C213.58 11.9428 213.45 11.7129 213.44 11.5429L213.25 6.4739C213.23 6.27394 213.38 5.87402 213.66 5.87402H215.05C215.38 5.87402 215.57 6.09398 215.56 6.34393L215.13 11.4329C215.11 11.8328 214.97 11.9828 214.69 11.9628H214.7Z" fill="#FFFF1B"/>
<path d="M315.9 22.8907C316.15 22.5307 316.38 22.1108 316.63 21.7409C316.88 21.381 317.27 21.261 317.58 21.5209C317.75 21.6609 319.9 23.4506 322.05 23.4506C323.98 23.4506 325.21 22.2808 325.21 20.8511C325.21 19.1714 323.76 18.1116 320.99 16.9718C318.14 15.7721 315.9 14.2924 315.9 11.053C315.9 8.87344 317.58 5.88403 322.02 5.88403C324.81 5.88403 326.91 7.33375 327.19 7.53371C327.41 7.67368 327.64 8.0636 327.36 8.48352C327.14 8.81345 326.89 9.21338 326.66 9.54331C326.44 9.90324 326.07 10.0732 325.68 9.82326C325.48 9.71328 323.53 8.42353 321.91 8.42353C319.56 8.42353 318.75 9.90324 318.75 10.943C318.75 12.5327 319.98 13.5125 322.3 14.4623C325.54 15.7721 328.31 17.3118 328.31 20.7211C328.31 23.6305 325.71 26.0001 322.08 26.0001C318.67 26.0001 316.52 24.2104 316.07 23.7905C315.82 23.5705 315.62 23.3706 315.9 22.9007V22.8907Z" fill="#FFFF1B"/>
<path d="M355.13 24.9802L346.55 6.17389C346.47 6.00392 346.21 5.86395 346.07 5.86395H345.79C345.65 5.86395 345.4 6.00392 345.32 6.17389L336.8 24.9802C336.63 25.3401 336.86 25.71 337.28 25.71H339.04C339.37 25.71 339.57 25.5401 339.68 25.2901L341.41 21.4609H350.55C351.11 22.7506 351.7 24.0004 352.25 25.2901C352.33 25.4901 352.56 25.71 352.89 25.71H354.65C355.07 25.71 355.29 25.3501 355.13 24.9802ZM342.47 19.0613L345.91 11.4029H346.05L349.46 19.0613H342.47ZM348.56 3.94433L348.95 3.16448C349.06 2.94452 348.92 2.71457 348.78 2.63458L344.39 0.0950861C344.22 -0.0148922 343.8 -0.0748803 343.66 0.17507L343.02 1.40483C342.85 1.68477 342.96 1.96472 343.19 2.0747L347.88 4.0843C348.24 4.25427 348.44 4.19428 348.55 3.94433H348.56Z" fill="#FFFF1B"/>
<path d="M373.82 5.87402C376.5 5.87402 378.71 6.85383 380.61 8.47351C380.83 8.69347 380.86 9.0334 380.64 9.25336C380.22 9.70327 379.8 10.1232 379.38 10.5631C379.16 10.813 378.93 10.7831 378.65 10.5331C377.34 9.38333 375.6 8.63348 373.9 8.63348C369.93 8.63348 366.89 11.9828 366.89 15.902C366.89 19.8213 369.94 23.1406 373.9 23.1406C376.22 23.1406 377.81 22.3008 378.09 22.1908V19.0614H375.35C375.04 19.0614 374.82 18.8415 374.82 18.5615V16.9418C374.82 16.6319 375.04 16.4119 375.35 16.4119H380.44C380.72 16.4119 380.94 16.6619 380.94 16.9418C380.94 19.1814 380.97 21.4709 380.97 23.7005C380.97 23.8405 380.86 24.0604 380.75 24.1504C380.75 24.1504 377.87 25.9901 373.82 25.9901C368.26 25.9901 363.76 21.5509 363.76 15.962C363.76 10.3731 368.26 5.87402 373.82 5.87402Z" fill="#FFFF1B"/>
<path d="M385.62 6.68395C385.62 6.404 385.87 6.15405 386.15 6.15405H387.99C388.27 6.15405 388.52 6.404 388.52 6.68395V25.1803C388.52 25.4602 388.27 25.7102 387.99 25.7102H386.15C385.87 25.7102 385.62 25.4602 385.62 25.1803V6.68395Z" fill="#FFFF1B"/>
<path d="M393.86 6.37392C393.86 6.09398 394.11 5.87402 394.39 5.87402H395.09L407.22 19.9013H407.25V6.68386C407.25 6.40392 407.47 6.15397 407.78 6.15397H409.57C409.85 6.15397 410.1 6.40392 410.1 6.68386V25.4902C410.1 25.7701 409.85 25.9901 409.57 25.9901H408.84L396.71 11.5729H396.68V25.1802C396.68 25.4602 396.46 25.7101 396.15 25.7101H394.39C394.11 25.7101 393.86 25.4602 393.86 25.1802V6.37392Z" fill="#FFFF1B"/>
<path d="M413.31 24.6804L422.53 8.95351V8.84353H414.65C414.37 8.84353 414.12 8.59358 414.12 8.31364V6.69396C414.12 6.41401 414.37 6.16406 414.65 6.16406H426.14C426.42 6.16406 426.67 6.41401 426.67 6.69396V7.05389L417.42 23.0307V23.0607H425.58C425.89 23.0607 426.11 23.3107 426.11 23.5906V25.1803C426.11 25.4603 425.89 25.7102 425.58 25.7102H413.84C413.56 25.7102 413.31 25.4603 413.31 25.1803V24.6804Z" fill="#FFFF1B"/>
<path d="M428.41 24.9802L436.99 6.17395C437.07 6.00399 437.33 5.86401 437.47 5.86401H437.75C437.89 5.86401 438.14 6.00399 438.22 6.17395L446.74 24.9802C446.91 25.3402 446.68 25.7101 446.26 25.7101H444.5C444.17 25.7101 443.97 25.5401 443.86 25.2902L442.13 21.4609H432.99C432.43 22.7507 431.84 24.0004 431.29 25.2902C431.21 25.4901 430.98 25.7101 430.65 25.7101H428.89C428.47 25.7101 428.25 25.3502 428.41 24.9802ZM441.07 19.0614L437.63 11.4029H437.49L434.08 19.0614H441.07Z" fill="#FFFF1B"/>
<path d="M476.796 6.68395C476.796 6.404 477.016 6.15405 477.326 6.15405H479.166C479.446 6.15405 479.696 6.404 479.696 6.68395V23.1107H487.266C487.576 23.1107 487.796 23.3607 487.796 23.6406V25.1803C487.796 25.4602 487.576 25.7102 487.266 25.7102H477.326C477.016 25.7102 476.796 25.4602 476.796 25.1803V6.68395Z" fill="#FFFF1B"/>
<path d="M489.556 24.9803L498.136 6.18396C498.216 6.014 498.476 5.87402 498.616 5.87402H498.896C499.036 5.87402 499.286 6.014 499.366 6.18396L507.886 24.9902C508.056 25.3502 507.826 25.7201 507.406 25.7201H505.646C505.316 25.7201 505.116 25.5501 505.006 25.3002L503.276 21.4709H494.136C493.576 22.7607 492.986 24.0104 492.436 25.3002C492.356 25.5002 492.126 25.7201 491.796 25.7201H490.036C489.616 25.7201 489.396 25.3602 489.556 24.9902V24.9803ZM502.216 19.0614L498.776 11.4029H498.636L495.226 19.0614H502.216Z" fill="#FFFF1B"/>
<path d="M517.946 6.68395C517.946 6.404 518.166 6.15405 518.476 6.15405H520.316C520.596 6.15405 520.846 6.404 520.846 6.68395V23.1107H528.416C528.726 23.1107 528.946 23.3607 528.946 23.6406V25.1803C528.946 25.4602 528.726 25.7102 528.416 25.7102H518.466C518.156 25.7102 517.936 25.4602 517.936 25.1803V6.68395H517.946Z" fill="#FFFF1B"/>
<path d="M530.706 24.9802L539.286 6.17395C539.366 6.00399 539.626 5.86401 539.766 5.86401H540.046C540.186 5.86401 540.436 6.00399 540.516 6.17395L549.036 24.9802C549.206 25.3402 548.976 25.7101 548.556 25.7101H546.796C546.466 25.7101 546.266 25.5401 546.156 25.2902L544.426 21.4609H535.286C534.726 22.7507 534.136 24.0004 533.586 25.2902C533.506 25.4901 533.276 25.7101 532.946 25.7101H531.186C530.766 25.7101 530.546 25.3502 530.706 24.9802ZM543.366 19.0614L539.926 11.4029H539.786L536.376 19.0614H543.366Z" fill="#FFFF1B"/>
<path d="M551.966 6.37392C551.966 6.09398 552.216 5.87402 552.496 5.87402H553.196L565.326 19.9013H565.356V6.68386C565.356 6.40392 565.576 6.15397 565.886 6.15397H567.676C567.956 6.15397 568.206 6.40392 568.206 6.68386V25.4902C568.206 25.7701 567.956 25.9901 567.676 25.9901H566.946L554.816 11.5729H554.786V25.1802C554.786 25.4602 554.566 25.7101 554.256 25.7101H552.496C552.216 25.7101 551.966 25.4602 551.966 25.1802V6.37392Z" fill="#FFFF1B"/>
<path d="M576.296 8.78355H571.746C571.436 8.78355 571.216 8.53359 571.216 8.25365V6.69396C571.216 6.41401 571.436 6.16406 571.746 6.16406H583.766C584.076 6.16406 584.296 6.41401 584.296 6.69396V8.25365C584.296 8.53359 584.076 8.78355 583.766 8.78355H579.206V25.1803C579.206 25.4603 578.956 25.7102 578.676 25.7102H576.836C576.556 25.7102 576.306 25.4603 576.306 25.1803V8.78355H576.296Z" fill="#FFFF1B"/>
<path d="M587.277 6.68395C587.277 6.404 587.497 6.15405 587.807 6.15405H598.987C599.297 6.15405 599.517 6.404 599.517 6.68395V8.24364C599.517 8.52359 599.297 8.77354 598.987 8.77354H590.157V14.4724H597.617C597.897 14.4724 598.147 14.7224 598.147 15.0023V16.572C598.147 16.8819 597.897 17.1019 597.617 17.1019H590.157V23.1107H598.987C599.297 23.1107 599.517 23.3607 599.517 23.6406V25.1803C599.517 25.4602 599.297 25.7102 598.987 25.7102H587.807C587.497 25.7102 587.277 25.4602 587.277 25.1803V6.68395Z" fill="#FFFF1B"/>
<path d="M603.536 6.68395C603.536 6.404 603.756 6.15405 604.066 6.15405H611.666C615.016 6.15405 617.756 8.80353 617.756 12.1329C617.756 14.7024 616.056 16.8219 613.616 17.8018L617.446 24.9004C617.646 25.2603 617.446 25.7102 616.966 25.7102H614.786C614.566 25.7102 614.396 25.5702 614.336 25.4602L610.616 18.0517H606.396V25.1803C606.396 25.4602 606.146 25.7102 605.866 25.7102H604.046C603.736 25.7102 603.516 25.4602 603.516 25.1803V6.68395H603.536ZM611.446 15.6522C613.266 15.6522 614.856 14.1125 614.856 12.1829C614.856 10.3632 613.266 8.85352 611.446 8.85352H606.476V15.6422H611.446V15.6522Z" fill="#FFFF1B"/>
<path d="M622.106 6.37392C622.106 6.09398 622.356 5.87402 622.636 5.87402H623.336L635.466 19.9013H635.496V6.68386C635.496 6.40392 635.716 6.15397 636.026 6.15397H637.816C638.096 6.15397 638.346 6.40392 638.346 6.68386V25.4902C638.346 25.7701 638.096 25.9901 637.816 25.9901H637.086L624.956 11.5729H624.926V25.1802C624.926 25.4602 624.706 25.7101 624.396 25.7101H622.636C622.356 25.7101 622.106 25.4602 622.106 25.1802V6.37392Z" fill="#FFFF1B"/>
<path d="M643.716 6.68395C643.716 6.404 643.936 6.15405 644.246 6.15405H655.426C655.736 6.15405 655.956 6.404 655.956 6.68395V8.24364C655.956 8.52359 655.736 8.77354 655.426 8.77354H646.596V14.4724H654.056C654.336 14.4724 654.586 14.7224 654.586 15.0023V16.572C654.586 16.8819 654.336 17.1019 654.056 17.1019H646.596V23.1107H655.426C655.736 23.1107 655.956 23.3607 655.956 23.6406V25.1803C655.956 25.4602 655.736 25.7102 655.426 25.7102H644.246C643.936 25.7102 643.716 25.4602 643.716 25.1803V6.68395Z" fill="#FFFF1B"/>
<path d="M670.856 6.68395C670.856 6.404 671.076 6.15405 671.356 6.15405H677.786C683.176 6.15405 687.596 10.5432 687.596 15.9021C687.596 21.2611 683.176 25.7102 677.786 25.7102H671.356C671.076 25.7102 670.856 25.4602 670.856 25.1803V6.68395ZM677.396 23.0607C681.506 23.0607 684.496 20.0413 684.496 15.9121C684.496 11.7829 681.506 8.81353 677.396 8.81353H673.706V23.0607H677.396Z" fill="#FFFF1B"/>
<path d="M697.086 6.68395C697.086 6.404 697.336 6.15405 697.616 6.15405H699.456C699.766 6.15405 699.986 6.404 699.986 6.68395V14.4824H710.216V6.68395C710.216 6.404 710.436 6.15405 710.746 6.15405H712.586C712.866 6.15405 713.116 6.404 713.116 6.68395V25.1803C713.116 25.4602 712.866 25.7102 712.586 25.7102H710.746C710.436 25.7102 710.216 25.4602 710.216 25.1803V17.1019H699.986V25.1803C699.986 25.4602 699.766 25.7102 699.456 25.7102H697.616C697.336 25.7102 697.086 25.4602 697.086 25.1803V6.68395Z" fill="#FFFF1B"/>
<path d="M718.506 6.68395C718.506 6.404 718.726 6.15405 719.036 6.15405H730.216C730.526 6.15405 730.746 6.404 730.746 6.68395V8.24364C730.746 8.52359 730.526 8.77354 730.216 8.77354H721.386V14.4724H728.846C729.126 14.4724 729.376 14.7224 729.376 15.0023V16.572C729.376 16.8819 729.126 17.1019 728.846 17.1019H721.386V23.1107H730.216C730.526 23.1107 730.746 23.3607 730.746 23.6406V25.1803C730.746 25.4602 730.526 25.7102 730.216 25.7102H719.036C718.726 25.7102 718.506 25.4602 718.506 25.1803V6.68395Z" fill="#FFFF1B"/>
<path d="M734.766 6.68395C734.766 6.404 734.986 6.15405 735.296 6.15405H742.896C746.246 6.15405 748.986 8.80353 748.986 12.1329C748.986 14.7024 747.286 16.8219 744.846 17.8018L748.676 24.9004C748.876 25.2603 748.676 25.7102 748.196 25.7102H746.016C745.796 25.7102 745.626 25.5702 745.566 25.4602L741.846 18.0517H737.626V25.1803C737.626 25.4602 737.376 25.7102 737.096 25.7102H735.276C734.966 25.7102 734.746 25.4602 734.746 25.1803V6.68395H734.766ZM742.676 15.6522C744.496 15.6522 746.086 14.1125 746.086 12.1829C746.086 10.3632 744.496 8.85352 742.676 8.85352H737.706V15.6422H742.676V15.6522Z" fill="#FFFF1B"/>
<path d="M755.326 6.29394C755.386 6.07398 755.606 5.87402 755.826 5.87402H756.276C756.446 5.87402 756.696 6.014 756.756 6.18396L762.596 20.4611H762.706L768.516 6.18396C768.576 6.014 768.796 5.87402 768.986 5.87402H769.436C769.656 5.87402 769.886 6.07398 769.936 6.29394L773.376 25.0702C773.456 25.4602 773.266 25.7101 772.876 25.7101H771.056C770.806 25.7101 770.576 25.5101 770.526 25.3202L768.456 12.8326H768.376L763.346 25.6801C763.286 25.8501 763.126 25.9901 762.866 25.9901H762.366C762.146 25.9901 761.946 25.8501 761.896 25.6801L756.836 12.8326H756.726L754.716 25.3202C754.686 25.5201 754.436 25.7101 754.216 25.7101H752.396C752.006 25.7101 751.806 25.4602 751.866 25.0702L755.336 6.29394H755.326Z" fill="#FFFF1B"/>
<path d="M777.416 6.68379C777.416 6.40384 777.636 6.15389 777.946 6.15389H789.126C789.436 6.15389 789.656 6.40384 789.656 6.68379V8.24348C789.656 8.52342 789.436 8.77337 789.126 8.77337H780.296V14.4722H787.756C788.036 14.4722 788.286 14.7222 788.286 15.0021V16.5718C788.286 16.8818 788.036 17.1017 787.756 17.1017H780.296V23.1105H789.126C789.436 23.1105 789.656 23.3605 789.656 23.6404V25.1801C789.656 25.4601 789.436 25.71 789.126 25.71H777.946C777.636 25.71 777.416 25.4601 777.416 25.1801V6.68379ZM786.066 3.94433L786.456 3.16448C786.566 2.94452 786.426 2.71457 786.286 2.63458L781.896 0.0950861C781.726 -0.0148922 781.306 -0.0748803 781.166 0.17507L780.526 1.40483C780.356 1.68477 780.466 1.96472 780.696 2.0747L785.396 4.0843C785.756 4.25427 785.956 4.19428 786.066 3.94433Z" fill="#FFFF1B"/>
<path d="M691.496 11.9628L690.626 11.9428C690.376 11.9428 690.246 11.7129 690.236 11.5429L690.046 6.4739C690.026 6.27394 690.176 5.87402 690.456 5.87402H691.846C692.176 5.87402 692.366 6.09398 692.356 6.34393L691.926 11.4329C691.906 11.8328 691.766 11.9828 691.486 11.9628H691.496Z" fill="#FFFF1B"/>
<path d="M792.696 22.8907C792.946 22.5307 793.176 22.1108 793.426 21.7409C793.676 21.381 794.066 21.261 794.376 21.5209C794.546 21.6609 796.696 23.4506 798.846 23.4506C800.776 23.4506 802.006 22.2808 802.006 20.8511C802.006 19.1714 800.556 18.1116 797.786 16.9718C794.936 15.7721 792.696 14.2924 792.696 11.053C792.696 8.87344 794.376 5.88403 798.816 5.88403C801.606 5.88403 803.706 7.33375 803.986 7.53371C804.206 7.67368 804.436 8.0636 804.156 8.48352C803.936 8.81345 803.686 9.21338 803.456 9.54331C803.236 9.90324 802.866 10.0732 802.476 9.82326C802.276 9.71328 800.326 8.42353 798.706 8.42353C796.356 8.42353 795.546 9.90324 795.546 10.943C795.546 12.5327 796.776 13.5125 799.096 14.4623C802.336 15.7721 805.106 17.3118 805.106 20.7211C805.106 23.6305 802.506 26.0001 798.876 26.0001C795.466 26.0001 793.316 24.2104 792.866 23.7905C792.616 23.5705 792.416 23.3706 792.696 22.9007V22.8907Z" fill="#FFFF1B"/>
<path d="M831.926 24.9802L823.346 6.17389C823.266 6.00392 823.006 5.86395 822.866 5.86395H822.586C822.446 5.86395 822.196 6.00392 822.116 6.17389L813.596 24.9802C813.426 25.3401 813.656 25.71 814.076 25.71H815.836C816.166 25.71 816.366 25.5401 816.476 25.2901L818.206 21.4609H827.346C827.906 22.7506 828.496 24.0004 829.046 25.2901C829.126 25.4901 829.356 25.71 829.686 25.71H831.446C831.866 25.71 832.086 25.3501 831.926 24.9802ZM819.266 19.0613L822.706 11.4029H822.846L826.256 19.0613H819.266ZM825.356 3.94433L825.746 3.16448C825.856 2.94452 825.716 2.71457 825.576 2.63458L821.186 0.0950861C821.016 -0.0148922 820.596 -0.0748803 820.456 0.17507L819.816 1.40483C819.646 1.68477 819.756 1.96472 819.986 2.0747L824.676 4.0843C825.036 4.25427 825.236 4.19428 825.346 3.94433H825.356Z" fill="#FFFF1B"/>
<path d="M850.616 5.87402C853.296 5.87402 855.506 6.85383 857.406 8.47351C857.626 8.69347 857.656 9.0334 857.436 9.25336C857.016 9.70327 856.596 10.1232 856.176 10.5631C855.956 10.813 855.726 10.7831 855.446 10.5331C854.136 9.38333 852.396 8.63348 850.696 8.63348C846.726 8.63348 843.686 11.9828 843.686 15.902C843.686 19.8213 846.736 23.1406 850.696 23.1406C853.016 23.1406 854.606 22.3008 854.886 22.1908V19.0614H852.146C851.836 19.0614 851.616 18.8415 851.616 18.5615V16.9418C851.616 16.6319 851.836 16.4119 852.146 16.4119H857.236C857.516 16.4119 857.736 16.6619 857.736 16.9418C857.736 19.1814 857.766 21.4709 857.766 23.7005C857.766 23.8405 857.656 24.0604 857.546 24.1504C857.546 24.1504 854.666 25.9901 850.616 25.9901C845.056 25.9901 840.556 21.5509 840.556 15.962C840.556 10.3731 845.056 5.87402 850.616 5.87402Z" fill="#FFFF1B"/>
<path d="M862.416 6.68395C862.416 6.404 862.666 6.15405 862.946 6.15405H864.786C865.066 6.15405 865.316 6.404 865.316 6.68395V25.1803C865.316 25.4602 865.066 25.7102 864.786 25.7102H862.946C862.666 25.7102 862.416 25.4602 862.416 25.1803V6.68395Z" fill="#FFFF1B"/>
<path d="M870.656 6.37392C870.656 6.09398 870.907 5.87402 871.187 5.87402H871.887L884.017 19.9013H884.047V6.68386C884.047 6.40392 884.267 6.15397 884.577 6.15397H886.367C886.647 6.15397 886.897 6.40392 886.897 6.68386V25.4902C886.897 25.7701 886.647 25.9901 886.367 25.9901H885.637L873.507 11.5729H873.477V25.1802C873.477 25.4602 873.257 25.7101 872.947 25.7101H871.187C870.907 25.7101 870.656 25.4602 870.656 25.1802V6.37392Z" fill="#FFFF1B"/>
<path d="M890.106 24.6804L899.326 8.95351V8.84353H891.446C891.166 8.84353 890.916 8.59358 890.916 8.31364V6.69396C890.916 6.41401 891.166 6.16406 891.446 6.16406H902.936C903.216 6.16406 903.466 6.41401 903.466 6.69396V7.05389L894.216 23.0307V23.0607H902.376C902.686 23.0607 902.906 23.3107 902.906 23.5906V25.1803C902.906 25.4603 902.686 25.7102 902.376 25.7102H890.636C890.356 25.7102 890.106 25.4603 890.106 25.1803V24.6804Z" fill="#FFFF1B"/>
<path d="M905.206 24.9802L913.786 6.17395C913.866 6.00399 914.126 5.86401 914.266 5.86401H914.546C914.686 5.86401 914.936 6.00399 915.016 6.17395L923.536 24.9802C923.706 25.3402 923.476 25.7101 923.056 25.7101H921.296C920.966 25.7101 920.766 25.5401 920.656 25.2902L918.926 21.4609H909.786C909.226 22.7507 908.636 24.0004 908.086 25.2902C908.006 25.4901 907.776 25.7101 907.446 25.7101H905.686C905.266 25.7101 905.046 25.3502 905.206 24.9802ZM917.866 19.0614L914.426 11.4029H914.286L910.876 19.0614H917.866Z" fill="#FFFF1B"/>
<path d="M953.592 6.68395C953.592 6.404 953.812 6.15405 954.122 6.15405H955.962C956.242 6.15405 956.492 6.404 956.492 6.68395V23.1107H964.062C964.372 23.1107 964.592 23.3607 964.592 23.6406V25.1803C964.592 25.4602 964.372 25.7102 964.062 25.7102H954.122C953.812 25.7102 953.592 25.4602 953.592 25.1803V6.68395Z" fill="#FFFF1B"/>
<path d="M966.353 24.9803L974.933 6.18396C975.013 6.014 975.273 5.87402 975.413 5.87402H975.693C975.833 5.87402 976.083 6.014 976.163 6.18396L984.683 24.9902C984.853 25.3502 984.623 25.7201 984.203 25.7201H982.443C982.113 25.7201 981.913 25.5501 981.803 25.3002L980.073 21.4709H970.933C970.373 22.7607 969.783 24.0104 969.233 25.3002C969.153 25.5002 968.923 25.7201 968.593 25.7201H966.833C966.413 25.7201 966.193 25.3602 966.353 24.9902V24.9803ZM979.013 19.0614L975.573 11.4029H975.433L972.023 19.0614H979.013Z" fill="#FFFF1B"/>
<path d="M994.742 6.68395C994.742 6.404 994.962 6.15405 995.272 6.15405H997.112C997.392 6.15405 997.642 6.404 997.642 6.68395V23.1107H1005.21C1005.52 23.1107 1005.74 23.3607 1005.74 23.6406V25.1803C1005.74 25.4602 1005.52 25.7102 1005.21 25.7102H995.262C994.952 25.7102 994.732 25.4602 994.732 25.1803V6.68395H994.742Z" fill="#FFFF1B"/>
<path d="M1007.5 24.9802L1016.08 6.17395C1016.16 6.00399 1016.42 5.86401 1016.56 5.86401H1016.84C1016.98 5.86401 1017.23 6.00399 1017.31 6.17395L1025.83 24.9802C1026 25.3402 1025.77 25.7101 1025.35 25.7101H1023.59C1023.26 25.7101 1023.06 25.5401 1022.95 25.2902L1021.22 21.4609H1012.08C1011.52 22.7507 1010.93 24.0004 1010.38 25.2902C1010.3 25.4901 1010.07 25.7101 1009.74 25.7101H1007.98C1007.56 25.7101 1007.34 25.3502 1007.5 24.9802ZM1020.16 19.0614L1016.72 11.4029H1016.58L1013.17 19.0614H1020.16Z" fill="#FFFF1B"/>
<path d="M1028.76 6.37392C1028.76 6.09398 1029.01 5.87402 1029.29 5.87402H1029.99L1042.12 19.9013H1042.15V6.68386C1042.15 6.40392 1042.37 6.15397 1042.68 6.15397H1044.47C1044.75 6.15397 1045 6.40392 1045 6.68386V25.4902C1045 25.7701 1044.75 25.9901 1044.47 25.9901H1043.74L1031.61 11.5729H1031.58V25.1802C1031.58 25.4602 1031.36 25.7101 1031.05 25.7101H1029.29C1029.01 25.7101 1028.76 25.4602 1028.76 25.1802V6.37392Z" fill="#FFFF1B"/>
<path d="M1053.09 8.78355H1048.54C1048.23 8.78355 1048.01 8.53359 1048.01 8.25365V6.69396C1048.01 6.41401 1048.23 6.16406 1048.54 6.16406H1060.56C1060.87 6.16406 1061.09 6.41401 1061.09 6.69396V8.25365C1061.09 8.53359 1060.87 8.78355 1060.56 8.78355H1056V25.1803C1056 25.4603 1055.75 25.7102 1055.47 25.7102H1053.63C1053.35 25.7102 1053.1 25.4603 1053.1 25.1803V8.78355H1053.09Z" fill="#FFFF1B"/>
<path d="M1064.07 6.68395C1064.07 6.404 1064.29 6.15405 1064.6 6.15405H1075.78C1076.09 6.15405 1076.31 6.404 1076.31 6.68395V8.24364C1076.31 8.52359 1076.09 8.77354 1075.78 8.77354H1066.95V14.4724H1074.41C1074.69 14.4724 1074.94 14.7224 1074.94 15.0023V16.572C1074.94 16.8819 1074.69 17.1019 1074.41 17.1019H1066.95V23.1107H1075.78C1076.09 23.1107 1076.31 23.3607 1076.31 23.6406V25.1803C1076.31 25.4602 1076.09 25.7102 1075.78 25.7102H1064.6C1064.29 25.7102 1064.07 25.4602 1064.07 25.1803V6.68395Z" fill="#FFFF1B"/>
<path d="M1080.33 6.68395C1080.33 6.404 1080.55 6.15405 1080.86 6.15405H1088.46C1091.81 6.15405 1094.55 8.80353 1094.55 12.1329C1094.55 14.7024 1092.85 16.8219 1090.41 17.8018L1094.24 24.9004C1094.44 25.2603 1094.24 25.7102 1093.76 25.7102H1091.58C1091.36 25.7102 1091.19 25.5702 1091.13 25.4602L1087.41 18.0517H1083.19V25.1803C1083.19 25.4602 1082.94 25.7102 1082.66 25.7102H1080.84C1080.53 25.7102 1080.31 25.4602 1080.31 25.1803V6.68395H1080.33ZM1088.24 15.6522C1090.06 15.6522 1091.65 14.1125 1091.65 12.1829C1091.65 10.3632 1090.06 8.85352 1088.24 8.85352H1083.27V15.6422H1088.24V15.6522Z" fill="#FFFF1B"/>
<path d="M1098.9 6.37392C1098.9 6.09398 1099.15 5.87402 1099.43 5.87402H1100.13L1112.26 19.9013H1112.29V6.68386C1112.29 6.40392 1112.51 6.15397 1112.82 6.15397H1114.61C1114.89 6.15397 1115.14 6.40392 1115.14 6.68386V25.4902C1115.14 25.7701 1114.89 25.9901 1114.61 25.9901H1113.88L1101.75 11.5729H1101.72V25.1802C1101.72 25.4602 1101.5 25.7101 1101.19 25.7101H1099.43C1099.15 25.7101 1098.9 25.4602 1098.9 25.1802V6.37392Z" fill="#FFFF1B"/>
<path d="M1120.51 6.68395C1120.51 6.404 1120.73 6.15405 1121.04 6.15405H1132.22C1132.53 6.15405 1132.75 6.404 1132.75 6.68395V8.24364C1132.75 8.52359 1132.53 8.77354 1132.22 8.77354H1123.39V14.4724H1130.85C1131.13 14.4724 1131.38 14.7224 1131.38 15.0023V16.572C1131.38 16.8819 1131.13 17.1019 1130.85 17.1019H1123.39V23.1107H1132.22C1132.53 23.1107 1132.75 23.3607 1132.75 23.6406V25.1803C1132.75 25.4602 1132.53 25.7102 1132.22 25.7102H1121.04C1120.73 25.7102 1120.51 25.4602 1120.51 25.1803V6.68395Z" fill="#FFFF1B"/>
<path d="M1147.65 6.68395C1147.65 6.404 1147.87 6.15405 1148.15 6.15405H1154.58C1159.97 6.15405 1164.39 10.5432 1164.39 15.9021C1164.39 21.2611 1159.97 25.7102 1154.58 25.7102H1148.15C1147.87 25.7102 1147.65 25.4602 1147.65 25.1803V6.68395ZM1154.19 23.0607C1158.3 23.0607 1161.29 20.0413 1161.29 15.9121C1161.29 11.7829 1158.3 8.81353 1154.19 8.81353H1150.5V23.0607H1154.19Z" fill="#FFFF1B"/>
<path d="M1173.88 6.68395C1173.88 6.404 1174.13 6.15405 1174.41 6.15405H1176.25C1176.56 6.15405 1176.78 6.404 1176.78 6.68395V14.4824H1187.01V6.68395C1187.01 6.404 1187.23 6.15405 1187.54 6.15405H1189.38C1189.66 6.15405 1189.91 6.404 1189.91 6.68395V25.1803C1189.91 25.4602 1189.66 25.7102 1189.38 25.7102H1187.54C1187.23 25.7102 1187.01 25.4602 1187.01 25.1803V17.1019H1176.78V25.1803C1176.78 25.4602 1176.56 25.7102 1176.25 25.7102H1174.41C1174.13 25.7102 1173.88 25.4602 1173.88 25.1803V6.68395Z" fill="#FFFF1B"/>
<path d="M1195.3 6.68395C1195.3 6.404 1195.52 6.15405 1195.83 6.15405H1207.01C1207.32 6.15405 1207.54 6.404 1207.54 6.68395V8.24364C1207.54 8.52359 1207.32 8.77354 1207.01 8.77354H1198.18V14.4724H1205.64C1205.92 14.4724 1206.17 14.7224 1206.17 15.0023V16.572C1206.17 16.8819 1205.92 17.1019 1205.64 17.1019H1198.18V23.1107H1207.01C1207.32 23.1107 1207.54 23.3607 1207.54 23.6406V25.1803C1207.54 25.4602 1207.32 25.7102 1207.01 25.7102H1195.83C1195.52 25.7102 1195.3 25.4602 1195.3 25.1803V6.68395Z" fill="#FFFF1B"/>
<path d="M1211.56 6.68395C1211.56 6.404 1211.78 6.15405 1212.09 6.15405H1219.69C1223.04 6.15405 1225.78 8.80353 1225.78 12.1329C1225.78 14.7024 1224.08 16.8219 1221.64 17.8018L1225.47 24.9004C1225.67 25.2603 1225.47 25.7102 1224.99 25.7102H1222.81C1222.59 25.7102 1222.42 25.5702 1222.36 25.4602L1218.64 18.0517H1214.42V25.1803C1214.42 25.4602 1214.17 25.7102 1213.89 25.7102H1212.07C1211.76 25.7102 1211.54 25.4602 1211.54 25.1803V6.68395H1211.56ZM1219.47 15.6522C1221.29 15.6522 1222.88 14.1125 1222.88 12.1829C1222.88 10.3632 1221.29 8.85352 1219.47 8.85352H1214.5V15.6422H1219.47V15.6522Z" fill="#FFFF1B"/>
<path d="M1232.12 6.29394C1232.18 6.07398 1232.4 5.87402 1232.62 5.87402H1233.07C1233.24 5.87402 1233.49 6.014 1233.55 6.18396L1239.39 20.4611H1239.5L1245.31 6.18396C1245.37 6.014 1245.59 5.87402 1245.78 5.87402H1246.23C1246.45 5.87402 1246.68 6.07398 1246.73 6.29394L1250.17 25.0702C1250.25 25.4602 1250.06 25.7101 1249.67 25.7101H1247.85C1247.6 25.7101 1247.37 25.5101 1247.32 25.3202L1245.25 12.8326H1245.17L1240.14 25.6801C1240.08 25.8501 1239.92 25.9901 1239.66 25.9901H1239.16C1238.94 25.9901 1238.74 25.8501 1238.69 25.6801L1233.63 12.8326H1233.52L1231.51 25.3202C1231.48 25.5201 1231.23 25.7101 1231.01 25.7101H1229.19C1228.8 25.7101 1228.6 25.4602 1228.66 25.0702L1232.13 6.29394H1232.12Z" fill="#FFFF1B"/>
<path d="M1254.21 6.68379C1254.21 6.40384 1254.43 6.15389 1254.74 6.15389H1265.92C1266.23 6.15389 1266.45 6.40384 1266.45 6.68379V8.24348C1266.45 8.52342 1266.23 8.77337 1265.92 8.77337H1257.09V14.4722H1264.55C1264.83 14.4722 1265.08 14.7222 1265.08 15.0021V16.5718C1265.08 16.8818 1264.83 17.1017 1264.55 17.1017H1257.09V23.1105H1265.92C1266.23 23.1105 1266.45 23.3605 1266.45 23.6404V25.1801C1266.45 25.4601 1266.23 25.71 1265.92 25.71H1254.74C1254.43 25.71 1254.21 25.4601 1254.21 25.1801V6.68379ZM1262.86 3.94433L1263.25 3.16448C1263.36 2.94452 1263.22 2.71457 1263.08 2.63458L1258.69 0.0950861C1258.52 -0.0148922 1258.1 -0.0748803 1257.96 0.17507L1257.32 1.40483C1257.15 1.68477 1257.26 1.96472 1257.49 2.0747L1262.19 4.0843C1262.55 4.25427 1262.75 4.19428 1262.86 3.94433Z" fill="#FFFF1B"/>
<path d="M1168.29 11.9628L1167.42 11.9428C1167.17 11.9428 1167.04 11.7129 1167.03 11.5429L1166.84 6.4739C1166.82 6.27394 1166.97 5.87402 1167.25 5.87402H1168.64C1168.97 5.87402 1169.16 6.09398 1169.15 6.34393L1168.72 11.4329C1168.7 11.8328 1168.56 11.9828 1168.28 11.9628H1168.29Z" fill="#FFFF1B"/>
<path d="M1269.49 22.8907C1269.74 22.5307 1269.97 22.1108 1270.22 21.7409C1270.47 21.381 1270.86 21.261 1271.17 21.5209C1271.34 21.6609 1273.49 23.4506 1275.64 23.4506C1277.57 23.4506 1278.8 22.2808 1278.8 20.8511C1278.8 19.1714 1277.35 18.1116 1274.58 16.9718C1271.73 15.7721 1269.49 14.2924 1269.49 11.053C1269.49 8.87344 1271.17 5.88403 1275.61 5.88403C1278.4 5.88403 1280.5 7.33375 1280.78 7.53371C1281 7.67368 1281.23 8.0636 1280.95 8.48352C1280.73 8.81345 1280.48 9.21338 1280.25 9.54331C1280.03 9.90324 1279.66 10.0732 1279.27 9.82326C1279.07 9.71328 1277.12 8.42353 1275.5 8.42353C1273.15 8.42353 1272.34 9.90324 1272.34 10.943C1272.34 12.5327 1273.57 13.5125 1275.89 14.4623C1279.13 15.7721 1281.9 17.3118 1281.9 20.7211C1281.9 23.6305 1279.3 26.0001 1275.67 26.0001C1272.26 26.0001 1270.11 24.2104 1269.66 23.7905C1269.41 23.5705 1269.21 23.3706 1269.49 22.9007V22.8907Z" fill="#FFFF1B"/>
<path d="M1308.72 24.9802L1300.14 6.17389C1300.06 6.00392 1299.8 5.86395 1299.66 5.86395H1299.38C1299.24 5.86395 1298.99 6.00392 1298.91 6.17389L1290.39 24.9802C1290.22 25.3401 1290.45 25.71 1290.87 25.71H1292.63C1292.96 25.71 1293.16 25.5401 1293.27 25.2901L1295 21.4609H1304.14C1304.7 22.7506 1305.29 24.0004 1305.84 25.2901C1305.92 25.4901 1306.15 25.71 1306.48 25.71H1308.24C1308.66 25.71 1308.88 25.3501 1308.72 24.9802ZM1296.06 19.0613L1299.5 11.4029H1299.64L1303.05 19.0613H1296.06ZM1302.15 3.94433L1302.54 3.16448C1302.65 2.94452 1302.51 2.71457 1302.37 2.63458L1297.98 0.0950861C1297.81 -0.0148922 1297.39 -0.0748803 1297.25 0.17507L1296.61 1.40483C1296.44 1.68477 1296.55 1.96472 1296.78 2.0747L1301.47 4.0843C1301.83 4.25427 1302.03 4.19428 1302.14 3.94433H1302.15Z" fill="#FFFF1B"/>
<path d="M1327.41 5.87402C1330.09 5.87402 1332.3 6.85383 1334.2 8.47351C1334.42 8.69347 1334.45 9.0334 1334.23 9.25336C1333.81 9.70327 1333.39 10.1232 1332.97 10.5631C1332.75 10.813 1332.52 10.7831 1332.24 10.5331C1330.93 9.38333 1329.19 8.63348 1327.49 8.63348C1323.52 8.63348 1320.48 11.9828 1320.48 15.902C1320.48 19.8213 1323.53 23.1406 1327.49 23.1406C1329.81 23.1406 1331.4 22.3008 1331.68 22.1908V19.0614H1328.94C1328.63 19.0614 1328.41 18.8415 1328.41 18.5615V16.9418C1328.41 16.6319 1328.63 16.4119 1328.94 16.4119H1334.03C1334.31 16.4119 1334.53 16.6619 1334.53 16.9418C1334.53 19.1814 1334.56 21.4709 1334.56 23.7005C1334.56 23.8405 1334.45 24.0604 1334.34 24.1504C1334.34 24.1504 1331.46 25.9901 1327.41 25.9901C1321.85 25.9901 1317.35 21.5509 1317.35 15.962C1317.35 10.3731 1321.85 5.87402 1327.41 5.87402Z" fill="#FFFF1B"/>
<path d="M1339.21 6.68395C1339.21 6.404 1339.46 6.15405 1339.74 6.15405H1341.58C1341.86 6.15405 1342.11 6.404 1342.11 6.68395V25.1803C1342.11 25.4602 1341.86 25.7102 1341.58 25.7102H1339.74C1339.46 25.7102 1339.21 25.4602 1339.21 25.1803V6.68395Z" fill="#FFFF1B"/>
<path d="M1347.45 6.37392C1347.45 6.09398 1347.7 5.87402 1347.98 5.87402H1348.68L1360.81 19.9013H1360.84V6.68386C1360.84 6.40392 1361.06 6.15397 1361.37 6.15397H1363.16C1363.44 6.15397 1363.69 6.40392 1363.69 6.68386V25.4902C1363.69 25.7701 1363.44 25.9901 1363.16 25.9901H1362.43L1350.3 11.5729H1350.27V25.1802C1350.27 25.4602 1350.05 25.7101 1349.74 25.7101H1347.98C1347.7 25.7101 1347.45 25.4602 1347.45 25.1802V6.37392Z" fill="#FFFF1B"/>
<path d="M1366.9 24.6804L1376.12 8.95351V8.84353H1368.24C1367.96 8.84353 1367.71 8.59358 1367.71 8.31364V6.69396C1367.71 6.41401 1367.96 6.16406 1368.24 6.16406H1379.73C1380.01 6.16406 1380.26 6.41401 1380.26 6.69396V7.05389L1371.01 23.0307V23.0607H1379.17C1379.48 23.0607 1379.7 23.3107 1379.7 23.5906V25.1803C1379.7 25.4603 1379.48 25.7102 1379.17 25.7102H1367.43C1367.15 25.7102 1366.9 25.4603 1366.9 25.1803V24.6804Z" fill="#FFFF1B"/>
<path d="M1382 24.9802L1390.58 6.17395C1390.66 6.00399 1390.92 5.86401 1391.06 5.86401H1391.34C1391.48 5.86401 1391.73 6.00399 1391.81 6.17395L1400.33 24.9802C1400.5 25.3402 1400.27 25.7101 1399.85 25.7101H1398.09C1397.76 25.7101 1397.56 25.5401 1397.45 25.2902L1395.72 21.4609H1386.58C1386.02 22.7507 1385.43 24.0004 1384.88 25.2902C1384.8 25.4901 1384.57 25.7101 1384.24 25.7101H1382.48C1382.06 25.7101 1381.84 25.3502 1382 24.9802ZM1394.66 19.0614L1391.22 11.4029H1391.08L1387.67 19.0614H1394.66Z" fill="#FFFF1B"/>
</svg>
