<svg width="225" height="162" viewBox="0 0 225 162" fill="none" xmlns="http://www.w3.org/2000/svg">
<g clip-path="url(#clip0_3120_5903)">
<path d="M88.3476 117.197C83.9134 117.197 80.0939 113.838 79.622 109.334L69.6781 14.7319C69.433 12.3978 70.1098 10.1112 71.5878 8.28923C73.0659 6.46728 75.1622 5.32581 77.4927 5.08069L124.794 0.112398C127.124 -0.132724 129.415 0.544106 131.237 2.02215C133.059 3.49654 134.2 5.59654 134.445 7.92703L144.389 102.529C144.894 107.344 141.389 111.672 136.574 112.181L89.2732 117.153C88.9622 117.186 88.6549 117.2 88.3476 117.2V117.197ZM125.72 2.98801C125.511 2.98801 125.306 2.99898 125.098 3.02093L77.7964 7.99289C76.2415 8.15752 74.8439 8.91484 73.8598 10.1295C72.8756 11.3441 72.4256 12.8697 72.5866 14.4246L82.5305 109.027C82.8671 112.236 85.7537 114.577 88.9622 114.237L136.263 109.265C139.472 108.928 141.81 106.042 141.473 102.833L131.533 8.23069C131.368 6.67581 130.611 5.27825 129.396 4.29411C128.343 3.44167 127.059 2.98801 125.723 2.98801L125.72 2.98801Z" fill="white"/>
<path d="M133.407 12.0796L71.5527 18.5808L71.8587 21.4916L133.713 14.9904L133.407 12.0796Z" fill="white"/>
<path d="M141.634 90.3065L79.7793 96.8076L80.0852 99.7184L141.94 93.2173L141.634 90.3065Z" fill="white"/>
<path d="M111.798 109.964C110.463 109.964 109.178 109.51 108.125 108.658C106.91 107.673 106.149 106.276 105.988 104.721C105.824 103.166 106.277 101.641 107.261 100.426C108.245 99.2113 109.643 98.4503 111.198 98.2893C112.753 98.1283 114.278 98.5783 115.493 99.5625C116.708 100.547 117.469 101.944 117.63 103.499C117.966 106.708 115.628 109.594 112.42 109.931C112.211 109.953 112.003 109.964 111.798 109.964ZM111.816 101.183C111.714 101.183 111.608 101.187 111.505 101.198C110.73 101.278 110.027 101.659 109.537 102.266C109.047 102.873 108.82 103.638 108.9 104.414C108.981 105.193 109.361 105.892 109.969 106.382C110.576 106.872 111.341 107.099 112.116 107.019C112.892 106.938 113.594 106.558 114.085 105.95C114.578 105.343 114.802 104.578 114.721 103.803C114.641 103.027 114.26 102.325 113.653 101.834C113.126 101.406 112.482 101.183 111.816 101.183Z" fill="white"/>
<path d="M152.5 88.1186C152.123 88.1186 151.758 87.976 151.483 87.7089C151.132 87.3686 150.971 86.8747 151.059 86.3955L152.829 76.6601C152.976 75.8662 153.737 75.3394 154.531 75.4821C155.325 75.6284 155.855 76.3894 155.709 77.1833L154.329 84.7565L161.851 83.1138C162.642 82.9418 163.421 83.443 163.593 84.2333C163.765 85.0235 163.264 85.8028 162.473 85.9747L152.808 88.0857C152.705 88.1077 152.599 88.1186 152.497 88.1186H152.5Z" fill="white"/>
<path d="M152.499 88.1185C152.082 88.1185 151.669 87.9393 151.38 87.5954C150.86 86.9771 150.941 86.0551 151.559 85.532C159.531 78.8332 164.104 69.0283 164.104 58.6271C164.104 48.2259 159.447 38.2271 151.321 31.5246C150.699 31.0088 150.608 30.0868 151.124 29.4649C151.64 28.8429 152.562 28.7551 153.184 29.2673C161.982 36.5295 167.031 47.2307 167.031 58.6271C167.031 70.0234 162.077 80.5198 153.44 87.7746C153.165 88.0051 152.832 88.1185 152.499 88.1185Z" fill="white"/>
<path d="M59.793 41.7978C59.7052 41.7978 59.6174 41.7904 59.5296 41.7758C58.7357 41.6295 58.2052 40.8685 58.3515 40.0746L59.7308 32.5014L52.2088 34.1441C51.4186 34.3161 50.6393 33.8148 50.4674 33.0246C50.2954 32.2343 50.7967 31.4551 51.5869 31.2831L61.2527 29.1721C61.7284 29.0697 62.2296 29.2087 62.5808 29.549C62.932 29.8892 63.093 30.3831 63.0052 30.8624L61.2345 40.5941C61.1064 41.3002 60.4881 41.7941 59.7967 41.7941L59.793 41.7978Z" fill="white"/>
<path d="M61.8081 88.3235C61.4788 88.3235 61.1495 88.2137 60.8788 87.9869C52.0764 80.7283 47.0313 70.0271 47.0313 58.6308C47.0313 47.2344 51.9849 36.7381 60.6227 29.4832C61.241 28.9637 62.163 29.0442 62.6825 29.6625C63.202 30.2808 63.1215 31.2027 62.5032 31.7259C54.5313 38.4247 49.9581 48.2296 49.9581 58.6308C49.9581 69.032 54.6154 79.0308 62.741 85.7332C63.363 86.2491 63.4544 87.171 62.9386 87.793C62.6495 88.1442 62.2325 88.3235 61.8081 88.3235Z" fill="white"/>
</g>
<path d="M2.52903 144.713L2.52873 143.433C2.52856 142.713 2.52851 142.521 2.49638 141.961L4.12841 142.057C4.30441 142.073 4.41642 142.136 4.41644 142.216C4.41647 142.313 4.32049 142.409 4.11252 142.537L4.11303 144.713L4.96103 144.712L6.24102 144.696L6.24137 146.2C5.90537 146.184 5.39337 146.184 4.96137 146.184L1.88937 146.185C1.45737 146.185 0.961371 146.185 0.609375 146.201L0.609023 144.697L1.88903 144.713L2.52903 144.713ZM0.947301 154.441L0.370938 152.889C1.2189 152.729 2.14685 152.521 3.05879 152.265C3.71412 149.369 3.84192 148.521 4.09743 146.441L5.72954 146.904C5.84155 146.936 5.92156 147 5.92158 147.064C5.92161 147.192 5.87361 147.224 5.53764 147.352C4.9303 150.168 4.77048 150.92 4.54669 151.816C5.12264 151.624 5.6666 151.432 6.16255 151.224L6.40287 152.6C4.48305 153.368 3.26715 153.785 1.49127 154.297L1.39531 154.473C1.33133 154.585 1.26735 154.633 1.18735 154.633C1.07535 154.633 0.995331 154.569 0.947301 154.441ZM13.2339 148.63L11.5859 148.631C11.3621 149.095 11.1382 149.543 10.8663 149.975L13.2983 149.974C14.0183 149.974 14.4983 149.974 15.0583 149.958C15.0423 150.246 15.0265 150.854 15.0266 151.366L15.027 153.046C15.027 153.334 15.0432 154.022 15.0753 154.534L15.0754 154.71C15.0757 156.006 14.6598 156.358 13.1558 156.358L13.0438 156.358C12.9956 155.59 12.9475 155.351 12.7874 154.807L13.0434 154.822C13.4594 154.822 13.5554 154.694 13.5552 154.15L13.5546 151.318L12.6266 151.319L12.627 153.335C12.6273 154.375 12.6435 155.191 12.6756 155.687L11.2036 155.687C11.2355 155.127 11.2513 154.359 11.251 153.335L11.2506 151.319L10.3866 151.319L10.387 153.335C10.3873 154.375 10.4035 155.191 10.4196 155.687L8.96359 155.687C8.97946 155.127 8.99528 154.359 8.99504 153.335L8.99457 151.319L8.06657 151.32L8.06736 154.68C8.06753 155.416 8.08368 156.04 8.11576 156.392L6.56376 156.392C6.59567 156.008 6.61154 155.48 6.61136 154.68L6.61058 151.368C6.61046 150.856 6.57832 150.248 6.56225 149.96C7.12226 149.976 7.60226 149.976 8.32226 149.976L9.42626 149.975C9.63416 149.543 9.82605 149.095 9.98594 148.631L8.24194 148.632C7.56994 148.632 6.67395 148.648 6.01795 148.68L6.01759 147.128C6.6256 147.16 7.5376 147.176 8.2416 147.176L13.2336 147.174C13.8736 147.174 14.9136 147.158 15.4736 147.126L15.474 148.678C14.882 148.662 13.8419 148.63 13.2339 148.63ZM8.28904 144.776L9.85704 144.775L9.85664 143.047C9.85647 142.311 9.85642 142.119 9.82429 141.559L11.4083 141.671C11.5843 141.671 11.6963 141.735 11.6964 141.831C11.6964 141.927 11.6004 142.007 11.3924 142.151L11.393 144.775L13.169 144.774L13.1689 144.006C13.1687 143.286 13.1525 142.534 13.1204 142.15L14.7045 142.262C14.8805 142.262 14.9765 142.326 14.9765 142.422C14.9765 142.518 14.8805 142.598 14.6726 142.742L14.6729 144.358C14.6731 145.206 14.6733 146.054 14.7054 146.486L13.1694 146.486L13.1694 146.118L8.28936 146.12L8.28949 146.696L6.75349 146.696C6.78537 146.184 6.80119 145.416 6.80099 144.568L6.80091 144.232C6.80069 143.288 6.78452 142.552 6.75243 142.152L8.33646 142.264C8.49646 142.264 8.60847 142.328 8.60849 142.424C8.60851 142.52 8.51253 142.6 8.28857 142.744L8.28904 144.776ZM0.68958 147.081L2.0495 146.729C2.51385 148.249 2.75417 149.609 2.91461 151.481L1.39469 151.817C1.29829 150.105 1.12201 148.921 0.68958 147.081ZM28.0341 149.267L25.0901 149.268C26.7226 151.363 28.7389 152.819 31.6512 154.002C31.2993 154.434 31.1554 154.674 30.7395 155.41C28.8033 154.515 27.6992 153.811 26.4189 152.675C25.7467 152.068 25.2186 151.54 24.7705 150.964L24.7707 151.812C24.7712 153.908 24.8035 155.46 24.8518 156.484L23.1718 156.484C23.2195 155.444 23.2352 153.876 23.2347 151.812L23.2345 151.028C22.6107 151.876 21.9869 152.516 21.091 153.285C19.9233 154.293 18.9634 154.933 17.2196 155.846C16.9475 155.206 16.8034 154.966 16.4193 154.534C19.347 153.077 21.1226 151.637 22.8501 149.268L20.0981 149.269C19.4101 149.269 18.5141 149.285 17.8581 149.317L17.8577 147.765C18.4657 147.781 19.3778 147.813 20.0978 147.813L23.2338 147.812L23.2333 145.812L19.8733 145.813C19.0893 145.813 17.6973 145.845 17.0093 145.862L17.0089 144.294C17.6649 144.309 19.0569 144.341 19.8729 144.341L23.2169 144.34C23.2166 142.964 23.1844 142.1 23.1363 141.748L24.8484 141.86C24.9924 141.86 25.0884 141.94 25.0884 142.02C25.0884 142.116 25.0084 142.196 24.7845 142.324L24.7849 144.34L28.1929 144.339C29.0729 144.339 30.3369 144.322 31.0569 144.29L31.0573 145.858C30.3053 145.842 29.0413 145.811 28.1933 145.811L24.7693 145.812L24.7698 147.812L28.0338 147.811C28.6738 147.811 29.7137 147.779 30.2577 147.762L30.2581 149.314C29.6661 149.283 28.6421 149.267 28.0341 149.267ZM42.1289 143.952L42.6092 145.312C41.1373 145.808 40.0013 146.064 38.5134 146.209C38.1935 146.913 38.1935 146.913 38.0176 147.233C37.9376 147.361 37.9217 147.393 37.8737 147.489C38.3536 147.233 38.8016 147.12 39.3136 147.12C40.4816 147.12 41.2498 147.84 41.378 149.04C44.1937 147.487 44.2257 147.455 45.3455 146.735L46.3538 147.855C46.4338 147.951 46.4818 148.047 46.4818 148.127C46.4819 148.239 46.4019 148.303 46.2579 148.303C46.1779 148.303 46.0819 148.303 45.9699 148.287C45.01 148.815 45.01 148.815 43.1382 149.791C42.5623 150.096 41.6184 150.592 41.3944 150.72L41.3951 153.536L39.7791 153.536L39.7786 151.616C39.6827 151.68 39.6827 151.68 39.5227 151.76C38.6108 152.273 38.1469 152.833 38.1471 153.441C38.1472 154.177 38.6273 154.353 40.5633 154.352C42.1473 154.352 43.3953 154.239 44.9792 153.935C44.8674 154.687 44.8514 154.895 44.8196 155.663C42.7076 155.904 42.1637 155.936 40.7237 155.936C38.6757 155.936 37.8916 155.793 37.2515 155.313C36.7074 154.913 36.4353 154.337 36.4351 153.569C36.4349 152.545 36.8827 151.761 37.8905 151.025C38.3864 150.657 38.5624 150.561 39.4103 150.112C39.6023 150.016 39.7303 149.936 39.7782 149.92L39.7782 149.792C39.7781 149.328 39.73 149.072 39.618 148.88C39.474 148.656 39.2019 148.512 38.8819 148.512C38.2099 148.513 37.442 148.961 36.7702 149.729C36.4663 150.065 36.0824 150.609 35.5066 151.505L34.1624 150.53C34.4023 150.177 34.4023 150.177 35.25 148.993C35.6339 148.449 36.3216 147.249 36.7374 146.321C36.4174 146.337 36.1774 146.337 35.8574 146.337C35.2334 146.337 34.8814 146.321 34.1614 146.274L34.129 144.754C34.9291 144.817 35.3451 144.833 35.8571 144.833C36.0651 144.833 36.9611 144.817 37.425 144.801C37.8728 143.681 38.2565 142.513 38.3684 141.969L40.0005 142.384C40.0805 142.4 40.1605 142.48 40.1605 142.56C40.1605 142.656 40.0646 142.736 39.8566 142.816C39.7127 143.168 39.7127 143.168 39.4728 143.808C39.3289 144.176 39.3289 144.176 39.233 144.448C39.185 144.56 39.185 144.576 39.153 144.672C40.145 144.528 40.9929 144.32 42.1289 143.952ZM54.883 153.197L54.8824 150.541C54.6265 150.957 54.3706 151.325 54.1147 151.677C53.8585 151.181 53.7305 151.037 53.2344 150.525C54.626 148.669 55.1857 147.549 55.9851 144.972L57.1692 145.468C57.3612 145.548 57.4572 145.644 57.4573 145.756C57.4573 145.868 57.4253 145.884 57.0893 145.996C56.8015 146.748 56.4977 147.468 56.1778 148.156L56.2738 148.156C56.4338 148.156 56.5299 148.236 56.5299 148.332C56.5299 148.412 56.4499 148.508 56.2419 148.636L56.2263 150.06L56.227 153.196C56.2274 154.684 56.2436 155.724 56.2758 156.476L54.8358 156.477C54.8676 155.757 54.8834 154.669 54.883 153.197ZM51.8741 149.341L51.875 153.117C51.8753 154.589 51.8916 155.693 51.9238 156.397L50.4838 156.398C50.5156 155.694 50.5313 154.59 50.531 153.118L50.5302 149.518C50.1142 149.566 49.9702 149.582 49.3942 149.694C49.2662 149.854 49.1862 149.918 49.1062 149.918C49.0262 149.918 48.9302 149.822 48.8982 149.694L48.5619 148.238C48.8179 148.238 49.0579 148.238 49.2978 148.222C49.6817 147.694 50.0656 147.166 50.4175 146.622C49.7133 145.966 49.0572 145.422 48.4491 145.022L49.1689 143.982C49.3129 144.078 49.4409 144.174 49.5689 144.254C50.0487 143.39 50.5445 142.286 50.7363 141.694L52.0005 142.301C52.0965 142.349 52.1445 142.397 52.1445 142.461C52.1445 142.557 52.0485 142.621 51.8406 142.685C51.6806 142.989 51.2488 143.742 50.5131 144.958C50.7211 145.118 50.9292 145.278 51.1212 145.438C51.553 144.685 51.8889 143.981 52.1287 143.341L53.4409 143.997C53.5529 144.045 53.5849 144.093 53.5849 144.157C53.5849 144.253 53.5049 144.317 53.297 144.381C52.0654 146.477 51.6496 147.133 50.8338 148.158C51.3138 148.126 51.7938 148.093 52.2578 148.045C52.1297 147.773 52.0017 147.597 51.8256 147.309L52.8335 146.669C53.3937 147.453 53.7458 148.093 54.1621 149.117L53.0262 149.789C52.9302 149.565 52.8501 149.357 52.7701 149.181C52.6421 149.213 52.4661 149.245 52.2421 149.277C52.1301 149.293 52.0021 149.325 51.8741 149.341ZM58.5774 146.092L59.8734 146.092C60.4011 145.019 61.0247 143.323 61.3924 141.963L62.8005 142.523C62.9445 142.571 63.0406 142.683 63.0406 142.763C63.0406 142.891 62.9606 142.939 62.6086 143.003C62.4168 143.563 62.4008 143.611 61.2654 146.091L62.0014 146.091C62.3534 146.091 62.9293 146.075 63.2813 146.059L63.2817 147.547C62.9457 147.531 62.4337 147.515 62.0017 147.515L61.0897 147.515L61.0902 149.851L61.7622 149.851C62.0982 149.851 62.6902 149.835 63.0422 149.819L63.0426 151.307C62.7066 151.291 62.1946 151.275 61.7626 151.275L61.0906 151.275L61.0914 154.763C61.5074 154.811 62.0194 154.843 62.6594 154.843C62.9474 154.843 63.1554 154.827 63.6354 154.795C63.4276 155.499 63.3636 155.819 63.3157 156.299C61.9717 156.267 61.7317 156.267 61.2197 156.203C59.7957 156.028 59.0276 155.596 58.2753 154.524C58.2433 154.476 58.2273 154.444 58.1953 154.412C58.0194 155.02 57.7956 155.612 57.4278 156.476C57.1077 156.028 56.8676 155.772 56.3235 155.324C57.1711 153.564 57.4747 151.9 57.5059 148.604L58.882 148.908C59.09 148.956 59.17 149.004 59.1701 149.116C59.1701 149.212 59.1541 149.212 58.8661 149.372C58.7546 151.372 58.7068 152.092 58.5629 152.812C58.8351 153.388 59.1552 153.82 59.6513 154.236L59.6497 147.516L58.5777 147.516C58.1457 147.516 57.6337 147.532 57.2977 147.548L57.2973 146.06C57.6493 146.076 58.2254 146.092 58.5774 146.092ZM48.9624 150.478L50.2744 150.75C50.4024 150.782 50.4345 150.814 50.4345 150.91C50.4345 150.974 50.4025 151.038 50.3545 151.07L50.2425 151.15C50.099 153.102 49.9232 154.158 49.5555 155.326C49.1234 155.006 48.8194 154.846 48.3554 154.686C48.7711 153.438 48.8669 152.686 48.9624 150.478ZM51.9225 150.989L52.9144 150.413C53.4746 151.293 53.8268 152.141 54.1791 153.437L52.9152 154.061C52.6109 152.669 52.3547 151.885 51.9225 150.989ZM55.4084 141.901L56.6085 142.46C56.8165 142.556 56.8805 142.62 56.8806 142.7C56.8806 142.828 56.7686 142.892 56.4326 142.956C55.777 144.396 55.0252 145.629 54.2255 146.621C53.9054 146.269 53.5853 145.997 53.1053 145.709C54.2889 144.237 54.6888 143.565 55.4084 141.901ZM57.3125 142.604L58.4804 142.076C58.9926 142.892 59.5849 144.188 59.8891 145.1L58.6093 145.66C58.177 144.38 57.7447 143.388 57.3125 142.604ZM70.5935 146.873L70.2412 145.273C72.129 144.777 73.377 144.616 75.153 144.616C76.145 144.616 76.865 144.664 77.921 144.791L77.6654 146.359C77.3774 146.343 77.1534 146.327 77.0094 146.312C76.0174 146.232 75.5534 146.216 74.6734 146.216C73.1054 146.216 72.2734 146.345 70.5935 146.873ZM70.8182 149.545L72.0503 150.297C71.6025 150.889 71.4745 151.193 71.4746 151.545C71.4748 152.377 72.4189 152.729 74.6589 152.728C76.1469 152.728 77.1869 152.599 78.4508 152.279C78.323 153.047 78.2591 153.575 78.2432 154.167C77.2033 154.327 75.9713 154.408 74.7713 154.408C73.3953 154.408 72.3073 154.297 71.6032 154.057C70.4511 153.673 69.8749 152.921 69.8747 151.801C69.8745 151.049 70.0984 150.521 70.8182 149.545ZM66.6407 143.21L68.3848 143.546C68.5608 143.594 68.6728 143.689 68.6728 143.817C68.6729 143.993 68.5609 144.09 68.2409 144.202C67.6337 147.578 67.5539 148.362 67.5543 150.25C67.5548 152.138 67.7631 153.434 68.3554 155.034C67.6675 155.242 67.2675 155.386 66.7236 155.642C66.1632 154.106 65.9068 152.41 65.9063 150.25C65.9059 148.522 66.0177 147.37 66.5289 144.122C66.5928 143.738 66.6248 143.562 66.6407 143.21ZM83.9846 142.902L85.8086 143.029C85.9846 143.029 86.1127 143.125 86.1127 143.253C86.1127 143.365 86.0487 143.429 85.8408 143.573C85.7771 144.885 85.6026 151.302 85.6028 152.134C85.6031 153.462 86.0832 153.941 87.4272 153.941C88.3712 153.941 89.2831 153.669 90.243 153.108C91.4108 152.436 92.0667 151.828 93.2023 150.324C93.4585 150.916 93.6185 151.14 94.2427 151.86C93.011 153.316 92.2912 153.94 91.1393 154.612C89.8915 155.317 88.5636 155.685 87.2356 155.685C85.9716 155.685 84.9795 155.302 84.4513 154.598C84.0512 154.07 83.859 153.302 83.8588 152.198C83.8587 151.766 83.8746 151.398 83.9541 149.35C84.0018 147.942 84.0334 146.358 84.033 144.758C84.0329 144.038 84.0167 143.462 83.9846 142.902ZM109.073 143.648L109.905 144.896C110.017 145.072 110.017 145.072 110.017 145.168C110.017 145.296 109.953 145.328 109.505 145.36C107.857 145.472 106.929 145.777 105.841 146.577C104.29 147.729 103.442 149.153 103.442 150.625C103.443 152.001 104.515 153.041 106.307 153.409C107.187 153.584 107.971 153.664 109.219 153.68C108.947 154.176 108.819 154.528 108.58 155.408C107.028 155.313 106.163 155.185 105.139 154.897C102.979 154.289 101.747 152.754 101.746 150.642C101.746 148.898 102.546 147.522 104.337 146.161C102.897 146.497 99.4256 147.298 98.5297 147.506C98.1297 147.587 98.0337 147.619 97.7297 147.699L97.3293 145.875C98.7693 145.746 100.769 145.426 104.465 144.721C107.601 144.128 108.033 144.032 109.073 143.648ZM125.136 142.076L125.84 141.26C126.608 141.724 127.088 142.108 127.873 142.86L127.073 143.724C126.337 142.94 125.969 142.636 125.136 142.076ZM115.33 149.487L116.802 150.19C116.434 150.75 116.307 151.102 116.307 151.582C116.307 152.91 117.347 153.39 120.291 153.389C122.115 153.389 123.347 153.229 125.075 152.748C125.011 153.324 124.995 153.596 124.995 153.964C124.995 154.172 124.995 154.316 125.011 154.652C123.763 154.957 122.195 155.117 120.451 155.117C117.939 155.118 116.643 154.846 115.667 154.142C114.995 153.663 114.627 152.863 114.627 151.903C114.627 151.071 114.786 150.495 115.33 149.487ZM115.985 144.526L117.265 143.694C117.857 144.51 118.129 144.622 119.729 144.622C120.929 144.621 122.305 144.429 123.681 144.093L124.097 145.709C122.369 146.125 121.201 146.253 119.377 146.254C117.537 146.254 116.849 145.918 115.985 144.526ZM123.905 143.517L124.609 142.7C125.361 143.164 125.841 143.548 126.625 144.3L125.825 145.18C125.089 144.396 124.721 144.076 123.905 143.517ZM133.074 146.922L134.386 146.922C134.994 146.922 135.81 146.906 136.29 146.89L136.29 148.058C135.81 148.042 134.914 148.01 134.386 148.01L130.546 148.011L130.546 148.539L129.09 148.539C129.106 147.963 129.122 147.179 129.121 146.203L129.121 143.531C129.121 143.051 129.104 142.411 129.088 142.107C129.536 142.139 129.536 142.139 130.96 142.139L134.128 142.138C134.736 142.138 135.552 142.122 136.032 142.106L136.033 143.274C135.553 143.258 134.657 143.226 134.129 143.226L133.073 143.226L133.073 143.882L133.953 143.882C134.721 143.882 135.057 143.866 135.457 143.85C135.441 144.074 135.425 144.602 135.425 144.986L135.425 145.274C135.425 145.722 135.441 146.042 135.457 146.538L134.097 146.538L134.097 146.314L133.073 146.314L133.074 146.922ZM131.73 146.923L131.729 146.315L130.545 146.315L130.546 146.923L131.73 146.923ZM131.729 143.883L131.729 143.227L130.545 143.227L130.545 143.883L131.729 143.883ZM134.097 145.354L134.097 144.826L130.545 144.827L130.545 145.355L134.097 145.354ZM138.083 153.865L138.083 154.313C138.083 154.745 138.131 154.841 138.339 154.905C138.483 154.953 139.139 155.001 139.795 155.001C140.083 155.001 140.947 154.953 141.203 154.937C141.715 154.888 141.923 154.664 141.971 154.152C141.987 153.768 142.003 153.512 142.003 153.176C142.499 153.416 142.787 153.496 143.443 153.64C143.252 155.288 143.22 155.448 142.884 155.768C142.484 156.152 141.588 156.312 139.78 156.313C138.58 156.313 137.972 156.281 137.7 156.233C136.916 156.074 136.644 155.674 136.643 154.666L136.643 153.866L135.539 153.866C134.771 155.082 134.148 155.562 132.82 155.994C131.812 156.331 131.028 156.459 129.156 156.603C129.028 156.043 128.948 155.803 128.691 155.227C130.227 155.163 131.075 155.051 132.035 154.827C132.883 154.618 133.363 154.378 133.811 153.866L132.819 153.866L132.819 154.218L131.283 154.219C131.315 153.851 131.331 153.307 131.331 152.523L131.33 149.803C131.33 149.307 131.314 148.683 131.282 148.395C131.842 148.411 132.338 148.427 133.058 148.426L138.962 148.425C139.682 148.425 140.178 148.409 140.738 148.393C140.706 148.681 140.69 149.305 140.69 149.801L140.691 152.457C140.691 153.209 140.707 153.753 140.739 154.121L139.203 154.121L139.203 153.865L138.083 153.865ZM139.203 152.777L139.203 152.345L132.819 152.346L132.819 152.778L139.203 152.777ZM139.203 151.337L139.202 150.921L132.818 150.922L132.819 151.338L139.203 151.337ZM139.202 149.913L139.202 149.513L132.818 149.514L132.818 149.914L139.202 149.913ZM142.497 144.424L138.065 144.425C137.649 145.145 137.217 145.737 136.641 146.426C136.257 145.946 136.065 145.754 135.633 145.434C136.737 144.186 137.265 143.289 137.888 141.625L139.168 141.945C139.392 141.993 139.488 142.073 139.488 142.185C139.488 142.313 139.424 142.361 139.073 142.425C138.961 142.665 138.865 142.873 138.769 143.081L142.497 143.08L143.457 143.064L143.457 144.44L142.497 144.424ZM142.801 145.72L142.802 147.144C142.562 147.128 142.162 147.128 141.842 147.128L138.306 147.129C138.002 147.129 137.586 147.129 137.346 147.145L137.345 145.721C137.585 145.737 138.001 145.737 138.305 145.737L141.841 145.736C142.161 145.736 142.561 145.736 142.801 145.72ZM153.104 142.23L154.705 143.253C154.817 143.317 154.881 143.429 154.881 143.509C154.881 143.637 154.769 143.701 154.465 143.749C153.745 144.598 151.442 147.014 150.258 148.134C149.746 148.615 149.65 148.727 149.65 148.839C149.65 148.935 149.73 149.063 149.938 149.27C151.939 151.35 153.331 153.014 154.947 155.205L153.316 156.358C152.916 155.686 152.339 154.79 151.811 154.07C151.171 153.158 149.234 150.855 148.354 149.943C147.842 149.415 147.698 149.175 147.698 148.887C147.698 148.535 148.002 148.119 148.834 147.319C149.937 146.262 151.601 144.406 152.321 143.446C152.657 142.998 152.833 142.726 153.104 142.23ZM171.601 142.481L172.304 141.665C173.056 142.129 173.553 142.513 174.337 143.265L173.537 144.145C172.785 143.345 172.433 143.041 171.601 142.481ZM166.865 144.979L166.817 145.123C167.569 144.962 167.985 144.834 168.929 144.498L169.441 145.938C168.417 146.338 167.585 146.546 166.354 146.755C165.906 148.355 165.906 148.355 165.458 149.587C164.435 152.435 163.891 153.667 162.756 155.779C162.228 155.316 162.099 155.236 161.315 154.868C162.563 152.788 163.57 150.403 164.642 146.947C163.586 147.027 163.106 147.059 161.922 147.06L161.905 145.476C163.377 145.475 163.729 145.459 165.105 145.347L165.137 145.235C165.441 144.003 165.585 143.283 165.728 142.211L167.457 142.642C167.585 142.674 167.681 142.754 167.681 142.834C167.681 142.946 167.617 143.01 167.377 143.122C167.041 144.402 167.025 144.466 166.865 144.979ZM170.353 143.938L171.057 143.106C171.825 143.569 172.305 143.969 173.089 144.721L172.289 145.585C171.553 144.801 171.185 144.498 170.353 143.938ZM167.746 149.65L167.362 148.21C169.33 147.586 170.434 147.394 172.146 147.393C172.482 147.393 172.994 147.409 173.65 147.441L173.586 148.993C172.354 148.945 172.194 148.945 171.986 148.945C170.642 148.946 169.794 149.09 167.746 149.65ZM167.811 151.09L168.963 151.762C168.515 152.402 168.371 152.738 168.371 153.154C168.371 153.778 168.947 153.938 171.267 153.937C172.243 153.937 173.043 153.841 174.291 153.585C174.179 154.097 174.163 154.241 174.132 155.297C173.028 155.441 172.228 155.505 171.172 155.506C169.812 155.506 168.756 155.41 168.147 155.25C167.283 155.01 166.771 154.323 166.771 153.395C166.771 152.627 167.059 152.002 167.811 151.09ZM182.304 142.143L184.192 142.03C184.32 142.03 184.416 142.11 184.416 142.238C184.416 142.318 184.4 142.35 184.225 142.542C184.529 143.55 184.801 144.334 185.137 145.022C186.177 144.766 187.025 144.478 188.001 144.062L188.769 145.533C187.553 145.982 187.137 146.142 186.849 146.222C186.017 146.43 186.017 146.43 185.825 146.494C186.722 148.206 187.17 148.846 188.434 150.317L187.203 151.486C185.906 150.718 184.946 150.446 183.666 150.447C182.098 150.447 181.219 150.991 181.219 151.935C181.219 152.735 181.747 153.311 182.723 153.599C183.347 153.791 184.067 153.855 185.267 153.854C186.003 153.854 186.531 153.838 187.635 153.774C187.299 154.366 187.203 154.654 187.108 155.454C185.876 155.486 185.876 155.486 185.14 155.486C183.396 155.487 182.372 155.327 181.475 154.911C180.227 154.319 179.539 153.296 179.539 152.048C179.538 150.192 181.042 149.023 183.49 149.023C184.274 149.022 184.77 149.086 185.586 149.294C185.106 148.638 184.802 148.126 184.194 146.862C183.026 147.071 180.754 147.375 179.074 147.536L178.753 145.904C181.089 145.727 182.369 145.583 183.521 145.359C183.105 144.351 182.785 143.535 182.593 142.927C182.449 142.511 182.417 142.447 182.304 142.143ZM194.209 144.22L196.017 144.492C196.225 144.524 196.369 144.62 196.369 144.764C196.369 144.892 196.289 144.956 196.001 145.068C195.873 146.028 195.857 146.524 195.858 148.268C195.858 149.772 196.082 150.924 196.547 151.852C196.803 152.38 197.219 152.763 197.523 152.763C197.795 152.763 197.987 152.187 198.274 150.539C199.155 151.147 199.267 151.211 199.763 151.451C199.187 153.947 198.691 154.699 197.603 154.699C196.659 154.7 195.811 154.108 195.123 152.94C194.723 152.252 194.371 151.26 194.226 150.38C194.114 149.788 194.082 149.116 194.082 148.028C194.082 147.244 194.145 145.388 194.193 144.668C194.209 144.38 194.209 144.38 194.209 144.22ZM202.081 146.298L203.313 145.21C205.298 147.162 206.226 148.617 207.075 151.209L205.363 152.01C204.946 150.49 204.626 149.706 203.954 148.65C203.378 147.738 202.834 147.05 202.081 146.298ZM211.123 151.464C212.467 151.464 213.555 152.552 213.555 153.896C213.556 155.256 212.468 156.344 211.124 156.344C209.764 156.344 208.676 155.257 208.675 153.897C208.675 152.553 209.763 151.464 211.123 151.464ZM211.123 152.616C210.403 152.616 209.827 153.192 209.827 153.896C209.827 154.616 210.403 155.192 211.123 155.192C211.827 155.192 212.403 154.616 212.403 153.896C212.403 153.192 211.827 152.616 211.123 152.616Z" fill="white"/>
<defs>
<clipPath id="clip0_3120_5903">
<rect width="120" height="117.135" fill="white" transform="translate(47.0312 0.0612793)"/>
</clipPath>
</defs>
</svg>
