<svg width="258" height="121" viewBox="0 0 258 121" fill="none" xmlns="http://www.w3.org/2000/svg">
<path d="M0 27.1852C0 26.5447 0.511738 25.9668 1.21842 25.9668H7.1156C7.75614 25.9668 8.33403 26.5447 8.33403 27.1852V63.1531H24.6853C25.392 63.1531 25.9037 63.731 25.9037 64.3716V69.6282C25.9037 70.2687 25.392 70.8466 24.6853 70.8466H1.21842C0.511738 70.8466 0 70.2687 0 69.6282V27.1817V27.1852Z" fill="#FFFF1B"/>
<path d="M18.5402 97.8747L41.0288 49.2074C41.2447 48.7722 41.6067 48.4102 42.2577 48.4102H42.9818C43.7059 48.4102 43.9948 48.7722 44.2106 49.2074L66.4834 97.8747C66.9186 98.8147 66.3407 99.7546 65.2546 99.7546H58.964C57.8779 99.7546 57.3731 99.3194 56.8683 98.3099L53.3245 90.498H31.7026L28.1588 98.3099C27.8698 99.034 27.2188 99.7546 26.0596 99.7546H19.769C18.6829 99.7546 18.105 98.8147 18.5402 97.8747ZM49.7806 82.4704L42.5501 66.5612H42.3343L35.2465 82.4704H49.7806Z" fill="#FFFF1B"/>
<path d="M73.8233 30.2483L87.5741 0.48737C87.7064 0.222798 87.9292 0 88.326 0H88.7681C89.2102 0 89.3878 0.222798 89.5201 0.48737L103.142 30.2483C103.407 30.8227 103.055 31.3971 102.39 31.3971H98.5434C97.8785 31.3971 97.5721 31.1325 97.2623 30.5128L95.097 25.7366H81.8753L79.71 30.5128C79.5325 30.955 79.1356 31.3971 78.4289 31.3971H74.5822C73.9207 31.3971 73.5657 30.8227 73.8302 30.2483H73.8233ZM92.9247 20.8281L88.5036 11.0981H88.3713L84.0372 20.8281H92.9247Z" fill="#FFFF1B"/>
<path d="M104.385 45.1405H93.5269C92.7471 45.1405 92.1797 44.5034 92.1797 43.7932V37.9761C92.1797 37.266 92.7471 36.6289 93.5269 36.6289H124.538C125.317 36.6289 125.885 37.266 125.885 37.9761V43.7932C125.885 44.5034 125.317 45.1405 124.538 45.1405H113.68V84.9482C113.68 85.6583 113.043 86.2954 112.332 86.2954H105.732C105.022 86.2954 104.385 85.6583 104.385 84.9482V45.1405Z" fill="#FFFF1B"/>
<path d="M129.391 46.1014C129.391 45.6384 129.763 45.2207 130.271 45.2207H149.16C149.672 45.2207 150.041 45.6384 150.041 46.1014V49.9064C150.041 50.3694 149.669 50.7872 149.16 50.7872H135.424V58.3971H146.887C147.35 58.3971 147.768 58.8148 147.768 59.2778V63.1316C147.768 63.6433 147.35 64.0123 146.887 64.0123H135.424V72.134H149.16C149.672 72.134 150.041 72.5517 150.041 73.0147V76.8197C150.041 77.2827 149.669 77.7004 149.16 77.7004H130.271C129.76 77.7004 129.391 77.2827 129.391 76.8197V46.0945V46.1014Z" fill="#FFFF1B"/>
<path d="M237.35 46.4218C237.35 45.9588 237.722 45.541 238.23 45.541H257.119C257.631 45.541 258 45.9588 258 46.4218V50.2267C258 50.6897 257.628 51.1075 257.119 51.1075H243.383V58.7174H254.846C255.309 58.7174 255.727 59.1352 255.727 59.5982V63.4519C255.727 63.9636 255.309 64.3326 254.846 64.3326H243.383V72.4543H257.119C257.631 72.4543 258 72.872 258 73.335V77.14C258 77.603 257.628 78.0207 257.119 78.0207H238.23C237.719 78.0207 237.35 77.603 237.35 77.14V46.4148V46.4218Z" fill="#FFFF1B"/>
<path d="M154.736 60.0406C154.736 59.4558 155.203 58.9336 155.843 58.9336H172.522C179.519 58.9336 185.235 64.5314 185.235 71.4729C185.235 76.8375 181.677 81.2099 176.605 83.2534L184.595 98.0659C185.002 98.8248 184.595 99.7578 183.603 99.7578H177.479C176.953 99.7578 176.665 99.4654 176.546 99.2321L168.79 83.779H162.318V98.6508C162.318 99.2356 161.793 99.7578 161.211 99.7578H155.847C155.206 99.7578 154.74 99.2321 154.74 98.6508V60.0476L154.736 60.0406ZM171.881 77.5337C174.973 77.5337 177.653 74.8497 177.653 71.5843C177.653 68.493 174.969 65.9274 171.881 65.9274H162.378V77.5337H171.881Z" fill="#FFFF1B"/>
<path d="M189.221 37.1936C189.221 36.4869 189.792 35.916 190.498 35.916H191.765C192.134 35.916 192.486 36.0692 192.737 36.3372L221.868 67.2887H221.937V37.9769C221.937 37.2667 222.505 36.6297 223.284 36.6297H229.815C230.557 36.6297 231.162 37.2354 231.162 37.9769V85.7426C231.162 86.4493 230.591 87.0202 229.885 87.0202H228.701C228.325 87.0202 227.967 86.8636 227.712 86.5851L198.442 54.443H198.373V84.9628C198.373 85.673 197.805 86.3101 197.026 86.3101H190.568C189.826 86.3101 189.221 85.7043 189.221 84.9628V37.1936Z" fill="#FFFF1B"/>
<path d="M66.5195 54.2066C66.5195 53.7471 66.892 53.3711 67.355 53.3711H68.1836C68.4238 53.3711 68.6535 53.4721 68.8206 53.6461L87.8489 73.865H87.8942V54.7183C87.8942 54.2553 88.2667 53.8376 88.7749 53.8376H93.0394C93.5233 53.8376 93.9202 54.2344 93.9202 54.7183V85.9204C93.9202 86.38 93.5477 86.7559 93.0847 86.7559H92.3118C92.0647 86.7559 91.8314 86.6515 91.6678 86.4705L72.5455 65.4753H72.5003V85.4122C72.5003 85.8752 72.1278 86.2929 71.6195 86.2929H67.4003C66.9164 86.2929 66.5195 85.8961 66.5195 85.4122V54.2101V54.2066Z" fill="#FFFF1B"/>
<path d="M53.5801 1.22887C53.5801 0.581363 54.0988 0 54.8089 0H60.7514C61.3989 0 61.9802 0.581363 61.9802 1.22887V37.4683H78.4534C79.1635 37.4683 79.6822 38.0497 79.6822 38.6972V43.9956C79.6822 44.6431 79.1635 45.2245 78.4534 45.2245H54.8089C54.0988 45.2245 53.5801 44.6431 53.5801 43.9956V1.22887Z" fill="#FFFF1B"/>
<path d="M119.438 8.40042V6.21073C119.438 6.07497 119.559 5.95312 119.695 5.95312H120.781C120.959 5.95312 121.081 6.10282 121.025 6.29428L120.468 8.45612C120.44 8.56404 120.318 8.66151 120.224 8.66151H119.695C119.559 8.66151 119.438 8.53967 119.438 8.4039V8.40042Z" fill="#FFFF1B"/>
<path d="M110.268 6.21073C110.268 6.07497 110.376 5.95312 110.511 5.95312H113.735C116.36 5.95312 118.508 8.08711 118.508 10.698C118.508 13.3089 116.36 15.4708 113.735 15.4708H110.511C110.376 15.4708 110.268 15.3489 110.268 15.2132V6.21073ZM113.571 13.8102C115.34 13.8102 116.631 12.4769 116.631 10.698C116.631 8.91912 115.34 7.59974 113.571 7.59974H112.022V13.8137H113.571V13.8102Z" fill="#FFFF1B"/>
<path d="M122.299 6.21073C122.299 6.07497 122.421 5.95312 122.556 5.95312H123.82C123.97 5.95312 124.078 6.07497 124.078 6.21073V9.81379H128.509V6.21073C128.509 6.07497 128.617 5.95312 128.767 5.95312H130.017C130.152 5.95312 130.274 6.07497 130.274 6.21073V15.2132C130.274 15.3489 130.152 15.4708 130.017 15.4708H128.767C128.617 15.4708 128.509 15.3489 128.509 15.2132V11.4604H124.078V15.2132C124.078 15.3489 123.97 15.4708 123.82 15.4708H122.556C122.421 15.4708 122.299 15.3489 122.299 15.2132V6.21073Z" fill="#FFFF1B"/>
<path d="M132.164 6.21073C132.164 6.07497 132.272 5.95312 132.422 5.95312H137.957C138.106 5.95312 138.214 6.07497 138.214 6.21073V7.32472C138.214 7.46049 138.106 7.58233 137.957 7.58233H133.933V9.81379H137.292C137.428 9.81379 137.55 9.93563 137.55 10.0714V11.1993C137.55 11.349 137.428 11.4569 137.292 11.4569H133.933V13.8346H137.957C138.106 13.8346 138.214 13.9564 138.214 14.0922V15.2062C138.214 15.342 138.106 15.4638 137.957 15.4638H132.422C132.272 15.4638 132.164 15.342 132.164 15.2062V6.20377V6.21073Z" fill="#FFFF1B"/>
<path d="M139.861 6.21073C139.861 6.07497 139.969 5.95312 140.119 5.95312H144.007C145.64 5.95312 146.97 7.25858 146.97 8.87734C146.97 10.1271 146.141 11.1471 144.958 11.624L146.82 15.0774C146.914 15.2549 146.82 15.4708 146.591 15.4708H145.163C145.041 15.4708 144.972 15.4011 144.947 15.3489L143.141 11.7459H141.63V15.2132C141.63 15.3489 141.508 15.4708 141.372 15.4708H140.122C139.973 15.4708 139.865 15.3489 139.865 15.2132V6.21073H139.861ZM143.858 10.2907C144.578 10.2907 145.205 9.6641 145.205 8.90519C145.205 8.18458 144.578 7.58581 143.858 7.58581H141.64V10.2907H143.858Z" fill="#FFFF1B"/>
<path d="M149.563 6.01789C149.577 5.90997 149.657 5.8125 149.807 5.8125H150.023C150.13 5.8125 150.214 5.8682 150.252 5.94827L153.243 12.3641H153.284L156.275 5.94827C156.317 5.8682 156.383 5.8125 156.505 5.8125H156.72C156.87 5.8125 156.95 5.90649 156.964 6.01789L158.569 15.1561C158.611 15.3475 158.499 15.4694 158.325 15.4694H157.089C156.968 15.4694 156.86 15.3615 156.832 15.264L156.031 10.1118H155.989L153.612 15.4555C153.584 15.5355 153.504 15.6052 153.382 15.6052H153.138C153.016 15.6052 152.947 15.539 152.908 15.4555L150.503 10.1118H150.461L149.674 15.264C149.66 15.358 149.553 15.4694 149.431 15.4694H148.205C148.028 15.4694 147.92 15.3475 147.948 15.1561L149.566 6.01789H149.563Z" fill="#FFFF1B"/>
<path d="M160.16 6.21032C160.16 6.07456 160.268 5.95271 160.418 5.95271H165.953C166.103 5.95271 166.211 6.07456 166.211 6.21032V7.32431C166.211 7.46008 166.103 7.58192 165.953 7.58192H161.929V9.81338H165.288C165.424 9.81338 165.546 9.93522 165.546 10.071V11.1989C165.546 11.3486 165.424 11.4565 165.288 11.4565H161.929V13.8342H165.953C166.103 13.8342 166.211 13.956 166.211 14.0918V15.2058C166.211 15.3415 166.103 15.4634 165.953 15.4634H160.418C160.268 15.4634 160.16 15.3415 160.16 15.2058V6.20336V6.21032ZM161.845 3.98235C161.723 3.92665 161.668 3.77695 161.765 3.61682L162.144 2.91013C162.214 2.78829 162.388 2.80221 162.5 2.86836L164.731 4.20166C164.797 4.24344 164.867 4.35136 164.811 4.45927L164.567 4.9362C164.512 5.05804 164.418 5.11374 164.226 5.03019L161.849 3.98235H161.845Z" fill="#FFFF1B"/>
<path d="M167.338 14.1361L167.829 13.2936C167.937 13.1022 168.17 13.1022 168.292 13.1996C168.358 13.2414 169.462 14.0421 170.346 14.0421C171.053 14.0421 171.582 13.5791 171.582 12.9942C171.582 12.3015 170.997 11.8246 169.855 11.3616C168.577 10.8463 167.3 10.0283 167.3 8.42341C167.3 7.21195 168.198 5.8125 170.36 5.8125C171.745 5.8125 172.807 6.51919 173.079 6.72458C173.214 6.80465 173.256 7.03789 173.159 7.17365L172.644 7.94997C172.536 8.11358 172.33 8.2215 172.167 8.11358C172.059 8.04744 171.025 7.36512 170.276 7.36512C169.528 7.36512 169.079 7.88034 169.079 8.31549C169.079 8.95604 169.58 9.39119 170.684 9.83678C172.003 10.3659 173.524 11.1562 173.524 12.9107C173.524 14.3101 172.313 15.6017 170.398 15.6017C168.685 15.6017 167.679 14.801 167.408 14.5399C167.286 14.4181 167.216 14.3484 167.342 14.1326L167.338 14.1361Z" fill="#FFFF1B"/>
<path d="M174.697 21.8648C174.697 21.729 174.805 21.6211 174.941 21.6211H175.185C175.254 21.6211 175.324 21.6489 175.373 21.7012L180.953 27.6297H180.967V22.0145C180.967 21.8787 181.075 21.7569 181.225 21.7569H182.474C182.617 21.7569 182.732 21.8717 182.732 22.0145V31.1631C182.732 31.2989 182.624 31.4068 182.488 31.4068H182.262C182.189 31.4068 182.123 31.3755 182.074 31.3232L176.466 25.165H176.452V31.0099C176.452 31.1457 176.344 31.2675 176.194 31.2675H174.958C174.816 31.2675 174.701 31.1527 174.701 31.0099V21.8613L174.697 21.8648Z" fill="#FFFF1B"/>
<path d="M165.763 21.6222C166.989 21.6222 168.155 22.0991 169.081 22.8859C169.189 22.9938 169.203 23.1574 169.095 23.2653L168.253 24.1496C168.145 24.2575 168.023 24.2575 167.897 24.1496C167.313 23.6343 166.592 23.3593 165.844 23.3593C164.145 23.3593 162.797 24.8145 162.797 26.5133C162.797 28.2121 164.145 29.6255 165.857 29.6255C166.62 29.6255 167.205 29.3957 167.476 29.2843V28.1286H166.39C166.24 28.1286 166.132 28.0207 166.132 27.8849V26.8092C166.132 26.6595 166.24 26.5516 166.39 26.5516H169.001C169.137 26.5516 169.245 26.6734 169.245 26.8092V30.2904C169.245 30.3983 169.189 30.468 169.137 30.5063C169.137 30.5063 167.737 31.3905 165.763 31.3905C163.059 31.3905 160.883 29.2426 160.883 26.5237C160.883 23.8049 163.059 21.6152 165.763 21.6152V21.6222Z" fill="#FFFF1B"/>
<path d="M171.031 22.0154C171.031 21.8797 171.153 21.7578 171.289 21.7578H172.553C172.688 21.7578 172.81 21.8797 172.81 22.0154V31.0144C172.81 31.1501 172.688 31.272 172.553 31.272H171.289C171.153 31.272 171.031 31.1501 171.031 31.0144V22.0154Z" fill="#FFFF1B"/>
<path d="M183.975 30.7746L188.027 23.4606V23.4049H184.629C184.493 23.4049 184.371 23.283 184.371 23.1472V22.0193C184.371 21.8836 184.493 21.7617 184.629 21.7617H190.314C190.45 21.7617 190.572 21.8836 190.572 22.0193V22.1969L186.575 29.6084V29.6362H190.042C190.192 29.6362 190.3 29.7581 190.3 29.8938V31.0217C190.3 31.1575 190.192 31.2794 190.042 31.2794H184.236C184.1 31.2794 183.978 31.1575 183.978 31.0217V30.7781L183.975 30.7746Z" fill="#FFFF1B"/>
<path d="M191.035 30.9194L195.264 21.7708C195.306 21.6907 195.372 21.6211 195.494 21.6211H195.63C195.766 21.6211 195.821 21.6907 195.86 21.7708L200.048 30.9194C200.128 31.097 200.02 31.2745 199.818 31.2745H198.634C198.429 31.2745 198.335 31.1944 198.241 31.003L197.576 29.5339H193.51L192.845 31.003C192.789 31.1387 192.667 31.2745 192.452 31.2745H191.268C191.063 31.2745 190.955 31.097 191.038 30.9194H191.035ZM196.911 28.0265L195.55 25.0362H195.508L194.175 28.0265H196.907H196.911Z" fill="#FFFF1B"/>
<path d="M148.765 30.9195L152.995 21.7674C153.037 21.6874 153.103 21.6177 153.225 21.6177H153.36C153.496 21.6177 153.552 21.6874 153.59 21.7674L157.778 30.9195C157.858 31.0971 157.75 31.2746 157.548 31.2746H156.365C156.159 31.2746 156.065 31.1945 155.971 31.0031L155.306 29.534H151.24L150.575 31.0031C150.52 31.1388 150.398 31.2746 150.182 31.2746H148.998C148.793 31.2746 148.685 31.0971 148.769 30.9195H148.765ZM151.85 19.7831C151.728 19.7274 151.672 19.5777 151.769 19.4176L152.149 18.7109C152.219 18.5891 152.393 18.603 152.504 18.6691L154.735 20.0024C154.805 20.0442 154.871 20.1521 154.816 20.2601L154.572 20.737C154.516 20.8588 154.422 20.9145 154.231 20.831L151.85 19.7831ZM154.638 28.0232L153.277 25.0328H153.235L151.902 28.0232H154.634H154.638Z" fill="#FFFF1B"/>
<path d="M74.7384 112.967C73.9899 112.967 73.238 112.98 72.4895 113.026C72.3537 113.026 72.2946 112.935 72.2632 112.74C72.1727 112.364 72.1449 111.811 72.0996 111.226C72.9525 111.316 73.8681 111.344 74.8567 111.344H79.9985C80.2526 111.344 80.552 111.313 80.7922 111.181C80.8688 111.121 80.928 111.09 80.9871 111.09C81.0637 111.09 81.1368 111.135 81.2134 111.195C81.572 111.48 81.9793 111.853 82.216 112.124C82.3205 112.228 82.3657 112.333 82.3657 112.437C82.3657 112.528 82.3205 112.632 82.2021 112.723C81.9619 112.918 81.8575 113.081 81.6938 113.426C80.1969 116.618 78.4702 118.491 75.5773 120.051C75.459 120.11 75.3685 120.155 75.278 120.155C75.1735 120.155 75.0691 120.096 74.9472 119.974C74.5434 119.616 74.063 119.389 73.5548 119.194C76.3293 117.906 78.7696 115.839 79.8488 112.946L74.7384 112.96V112.967ZM75.741 109.746C75.0656 109.746 74.3171 109.76 73.687 109.806C73.5373 109.806 73.4921 109.715 73.4782 109.475C73.4329 109.162 73.4016 108.5 73.4016 108.037C74.3171 108.128 74.7662 108.142 75.8593 108.142H78.5573C79.532 108.142 80.3257 108.096 80.9106 108.068C81.0463 108.068 81.0916 108.142 81.0916 108.309C81.1229 108.685 81.1229 109.102 81.0916 109.478C81.0916 109.732 81.0463 109.792 80.8235 109.778C80.3292 109.778 79.626 109.746 78.7104 109.746H75.7444H75.741Z" fill="#FFFF1B"/>
<path d="M87.1314 109.038C87.1906 108.962 87.2672 108.92 87.3403 108.92C87.3995 108.92 87.4586 108.951 87.5352 108.997C88.3011 109.4 89.5439 110.316 90.3968 111.124C90.4873 111.214 90.5325 111.273 90.5325 111.332C90.5325 111.392 90.5012 111.451 90.442 111.527C90.2158 111.827 89.7214 112.426 89.5126 112.652C89.436 112.728 89.3942 112.77 89.3315 112.77C89.2689 112.77 89.2132 112.725 89.1366 112.652C88.2384 111.722 87.1593 110.869 86.0801 110.208C86.4108 109.804 86.8459 109.338 87.1279 109.038H87.1314ZM88.4369 116.937C90.2645 115.994 91.2392 115.364 92.7536 114.149C94.5812 112.666 95.5873 111.705 96.8614 110.072C96.9519 110.821 97.0877 111.332 97.2826 111.827C97.3279 111.931 97.3592 112.022 97.3592 112.112C97.3592 112.248 97.2826 112.366 97.119 112.561C96.3253 113.491 95.0372 114.688 93.6726 115.74C92.4298 116.714 91.1696 117.553 89.147 118.678C88.4717 119.082 88.2767 119.231 88.1444 119.367C88.0539 119.458 87.9634 119.517 87.8764 119.517C87.7998 119.517 87.7128 119.458 87.6223 119.353C87.2463 118.932 86.7833 118.319 86.4247 117.689C87.1906 117.48 87.6536 117.344 88.4473 116.941L88.4369 116.937Z" fill="#FFFF1B"/>
<path d="M108.59 109.579C109.025 109.565 109.22 109.474 109.415 109.352C109.519 109.279 109.596 109.248 109.669 109.248C109.742 109.248 109.833 109.293 109.937 109.366C110.268 109.561 110.686 109.965 110.957 110.282C111.048 110.372 111.075 110.463 111.075 110.55C111.075 110.637 111.03 110.731 110.912 110.835C110.762 110.971 110.612 111.121 110.463 111.406C109.819 112.68 109.116 113.909 108.259 115.034C108.875 115.528 109.443 116.054 109.878 116.548C109.937 116.607 109.968 116.684 109.968 116.757C109.968 116.816 109.937 116.893 109.878 116.952C109.669 117.206 109.203 117.686 108.948 117.895C108.889 117.94 108.83 117.972 108.767 117.972C108.722 117.972 108.663 117.94 108.604 117.881C108.245 117.46 107.643 116.861 107.149 116.426C105.62 118.076 104.075 119.242 102.369 120.172C102.233 120.249 102.115 120.308 101.993 120.308C101.902 120.308 101.812 120.262 101.707 120.172C101.227 119.782 100.809 119.587 100.284 119.406C102.606 118.222 104.106 117.143 105.798 115.343C105.227 114.88 104.555 114.414 103.64 113.934C103.97 113.575 104.284 113.185 104.628 112.868C104.687 112.809 104.747 112.764 104.823 112.764C104.868 112.764 104.914 112.795 104.973 112.823C105.512 113.077 106.17 113.512 106.905 114.021C107.626 113.091 108.179 112.116 108.659 111.055L104.942 111.131C103.713 112.705 102.738 113.739 101.735 114.505C101.631 114.578 101.54 114.64 101.436 114.64C101.359 114.64 101.272 114.609 101.196 114.536C100.82 114.268 100.43 114.055 99.9355 113.847C102.035 112.183 103.159 110.804 104.176 109.14C104.656 108.332 104.851 107.925 104.987 107.295C105.495 107.476 106.275 107.73 106.741 108.029C106.86 108.089 106.905 108.179 106.905 108.27C106.905 108.374 106.828 108.496 106.724 108.569C106.588 108.66 106.484 108.778 106.411 108.882C106.292 109.091 106.202 109.241 105.948 109.631L108.586 109.572L108.59 109.579Z" fill="#FFFF1B"/>
<path d="M115.979 109.038C116.038 108.962 116.115 108.92 116.188 108.92C116.247 108.92 116.306 108.951 116.383 108.997C117.149 109.4 118.392 110.316 119.244 111.124C119.335 111.214 119.38 111.273 119.38 111.332C119.38 111.392 119.349 111.451 119.29 111.527C119.063 111.827 118.569 112.426 118.36 112.652C118.284 112.728 118.242 112.77 118.179 112.77C118.117 112.77 118.061 112.725 117.984 112.652C117.086 111.722 116.007 110.869 114.928 110.208C115.258 109.804 115.694 109.338 115.976 109.038H115.979ZM117.281 116.937C119.109 115.994 120.083 115.364 121.598 114.149C123.425 112.666 124.431 111.705 125.706 110.072C125.796 110.821 125.932 111.332 126.127 111.827C126.172 111.931 126.203 112.022 126.203 112.112C126.203 112.248 126.127 112.366 125.963 112.561C125.169 113.491 123.881 114.688 122.517 115.74C121.274 116.714 120.014 117.553 117.991 118.678C117.316 119.082 117.121 119.231 116.989 119.367C116.898 119.458 116.808 119.517 116.721 119.517C116.644 119.517 116.557 119.458 116.466 119.353C116.09 118.932 115.627 118.319 115.269 117.689C116.035 117.48 116.498 117.344 117.291 116.941L117.281 116.937Z" fill="#FFFF1B"/>
<path d="M136.363 116.521H138.507C139.51 116.521 140.516 116.489 141.536 116.462C141.7 116.448 141.776 116.521 141.776 116.702C141.79 117.092 141.79 117.509 141.776 117.899C141.776 118.094 141.731 118.167 141.55 118.167C140.829 118.136 139.496 118.108 138.521 118.108H132.495C131.879 118.108 130.908 118.153 129.738 118.167C129.498 118.181 129.47 118.122 129.425 117.868C129.366 117.537 129.32 116.998 129.32 116.458C130.399 116.517 131.538 116.535 132.499 116.535H134.539V111.41H133.369C132.29 111.41 131.66 111.442 131.047 111.469C130.866 111.483 130.838 111.379 130.793 111.156C130.734 110.857 130.674 110.272 130.674 109.764C131.423 109.837 132.022 109.823 133.268 109.823H137.508C138.424 109.823 139.245 109.823 140.129 109.778C140.279 109.764 140.324 109.854 140.324 110.018C140.338 110.394 140.338 110.812 140.324 111.187C140.311 111.382 140.279 111.473 140.116 111.473C139.113 111.428 138.378 111.414 137.539 111.414H136.37V116.524L136.363 116.521Z" fill="#FFFF1B"/>
<path d="M149.549 110.046C149.804 110.122 149.835 110.3 149.744 110.509C149.581 110.839 149.563 111.167 149.563 111.529C149.532 113.401 149.25 114.825 148.752 115.936C148.362 116.851 147.704 117.823 146.625 118.752C146.476 118.87 146.354 118.947 146.235 118.947C146.145 118.947 146.054 118.902 145.95 118.829C145.574 118.575 145.215 118.394 144.676 118.199C145.845 117.314 146.639 116.399 147.165 115.215C147.586 114.195 147.781 113.37 147.795 110.975C147.795 110.404 147.764 110.167 147.645 109.715C148.498 109.819 149.187 109.924 149.549 110.046ZM152.878 116.385C153.612 115.995 154.301 115.532 155.005 114.992C155.903 114.303 156.787 113.509 157.626 112.444C157.685 112.97 157.835 113.464 158.089 113.958C158.134 114.063 158.179 114.14 158.179 114.213C158.179 114.317 158.12 114.421 157.953 114.589C157.205 115.354 156.515 115.967 155.736 116.552C154.956 117.151 154.117 117.736 153.069 118.352C152.801 118.533 152.77 118.561 152.634 118.665C152.543 118.738 152.439 118.783 152.334 118.783C152.244 118.783 152.14 118.738 152.021 118.665C151.69 118.439 151.346 118.049 151.123 117.75C151.032 117.614 150.987 117.523 150.987 117.436C150.987 117.36 151.001 117.3 151.046 117.21C151.151 117.015 151.137 116.834 151.137 116.072V111.379C151.137 110.073 151.137 109.461 150.987 108.771C151.586 108.848 152.411 108.953 152.86 109.085C153.055 109.13 153.128 109.221 153.128 109.339C153.128 109.429 153.083 109.565 153.01 109.715C152.874 110 152.874 110.3 152.874 111.379V116.385H152.878Z" fill="#FFFF1B"/>
<path d="M167.909 109.833C168.239 109.054 168.358 108.695 168.48 107.988C169.228 108.256 170.008 108.632 170.37 108.932C170.474 109.005 170.52 109.095 170.52 109.186C170.52 109.304 170.46 109.426 170.356 109.517C170.147 109.698 170.025 109.893 169.681 110.519C169.11 111.612 168.556 112.632 167.971 113.485C168.81 114.143 169.214 114.519 170.175 115.525C170.234 115.602 170.265 115.661 170.265 115.734C170.265 115.793 170.234 115.852 170.189 115.929C169.89 116.319 169.59 116.65 169.273 116.994C169.214 117.067 169.155 117.099 169.092 117.099C169.019 117.099 168.957 117.053 168.883 116.963C168.18 116.124 167.578 115.539 166.92 114.986C165.211 117.13 163.533 118.599 161.796 119.661C161.677 119.734 161.555 119.779 161.451 119.779C161.347 119.779 161.256 119.748 161.166 119.675C160.73 119.316 160.25 118.985 159.818 118.85C162.158 117.485 163.79 116.093 165.468 113.934C164.525 113.231 163.773 112.751 162.544 112.152C162.979 111.598 163.338 111.132 163.533 110.923C163.578 110.878 163.623 110.85 163.683 110.85C163.742 110.85 163.801 110.881 163.864 110.909C164.643 111.299 165.587 111.87 166.471 112.483C167.115 111.494 167.46 110.819 167.909 109.83V109.833Z" fill="#FFFF1B"/>
<path d="M181.743 109.13C182.283 109.13 182.554 109.117 182.777 108.995C182.836 108.949 182.882 108.936 182.941 108.936C183.031 108.936 183.105 108.995 183.195 109.054C183.54 109.325 183.884 109.712 184.17 110.102C184.215 110.178 184.246 110.238 184.246 110.297C184.246 110.387 184.187 110.492 184.051 110.596C183.856 110.76 183.661 110.986 183.498 111.254C182.882 112.302 182.3 113.141 181.58 114.056C183.017 115.122 184.351 116.288 185.733 117.684C185.809 117.76 185.851 117.834 185.851 117.893C185.851 117.952 185.82 118.028 185.747 118.119C185.461 118.464 185.117 118.822 184.744 119.139C184.685 119.198 184.626 119.229 184.563 119.229C184.487 119.229 184.427 119.184 184.354 119.111C183.094 117.642 181.806 116.458 180.459 115.393C178.763 117.162 177.058 118.436 175.421 119.351C175.286 119.411 175.181 119.47 175.077 119.47C174.986 119.47 174.896 119.424 174.823 119.334C174.492 118.93 174.057 118.631 173.562 118.359C175.902 117.176 177.294 116.11 178.837 114.537C179.916 113.412 180.741 112.347 181.653 110.774L177.785 110.788C177.005 110.788 176.226 110.819 175.418 110.878C175.3 110.892 175.254 110.788 175.223 110.624C175.146 110.311 175.087 109.59 175.087 109.064C175.895 109.124 176.647 109.124 177.622 109.124H181.743V109.13Z" fill="#FFFF1B"/>
<path d="M202.834 22.7954C203.76 21.6744 205.525 19.3768 206.465 18.1271C206.9 17.5944 207.179 17.0479 207.179 16.571C207.179 15.9409 206.702 15.2968 205.692 15.2968C205.02 15.2968 204.446 15.7738 204.122 16.1254C204.011 16.2368 203.854 16.2368 203.743 16.1254L203.071 15.4535C202.987 15.3699 202.959 15.2029 203.057 15.088C203.057 15.088 204.15 13.7129 205.817 13.7129C207.823 13.7129 208.944 14.987 208.944 16.5013C208.944 17.4134 208.55 17.9878 208.004 18.7711C207.401 19.6275 206.336 20.9434 205.595 21.8833H208.623C208.762 21.8833 208.888 22.0086 208.888 22.1479V23.1157C208.888 23.2549 208.762 23.3802 208.623 23.3802H203.102C202.949 23.3802 202.837 23.2549 202.837 23.1157V22.7919L202.834 22.7954Z" fill="#FFFF1B"/>
<path d="M210.062 18.6179C210.062 15.5475 211.351 13.7129 213.592 13.7129C215.834 13.7129 217.122 15.5475 217.122 18.6179C217.122 21.6884 215.834 23.523 213.592 23.523C211.351 23.523 210.062 21.6884 210.062 18.6179ZM215.291 18.6179C215.291 16.5431 214.675 15.3665 213.596 15.3665C212.517 15.3665 211.901 16.5431 211.901 18.6179C211.901 20.6927 212.517 21.8694 213.596 21.8694C214.675 21.8694 215.291 20.7066 215.291 18.6179Z" fill="#FFFF1B"/>
<path d="M217.799 22.7954C218.725 21.6744 220.49 19.3768 221.43 18.1271C221.865 17.5944 222.143 17.0479 222.143 16.571C222.143 15.9409 221.666 15.2968 220.657 15.2968C219.985 15.2968 219.411 15.7738 219.087 16.1254C218.975 16.2368 218.819 16.2368 218.707 16.1254L218.036 15.4535C217.952 15.3699 217.924 15.2029 218.022 15.088C218.022 15.088 219.115 13.7129 220.782 13.7129C222.787 13.7129 223.908 14.987 223.908 16.5013C223.908 17.4134 223.515 17.9878 222.968 18.7711C222.366 19.6275 221.301 20.9434 220.559 21.8833H223.588C223.727 21.8833 223.853 22.0086 223.853 22.1479V23.1157C223.853 23.2549 223.727 23.3802 223.588 23.3802H218.067C217.914 23.3802 217.802 23.2549 217.802 23.1157V22.7919L217.799 22.7954Z" fill="#FFFF1B"/>
<path d="M225.232 21.8827L225.932 21.1969C226.029 21.1134 226.154 21.0855 226.269 21.183C226.325 21.2387 227.14 21.9663 228.076 21.9663C229.012 21.9663 229.702 21.1969 229.702 20.3127C229.702 19.4285 229.113 18.7427 228.006 18.7427H225.848C225.566 18.7427 225.413 18.4746 225.413 18.2518V14.1161C225.413 13.9769 225.524 13.8516 225.678 13.8516H230.106C230.259 13.8516 230.37 13.9769 230.37 14.1161V15.07C230.37 15.2092 230.259 15.3346 230.106 15.3346H226.993V17.197H228.198C230.189 17.197 231.408 18.4711 231.408 20.3092C231.408 22.1473 229.949 23.5189 228.017 23.5189C226.516 23.5189 225.608 22.7774 225.256 22.3562C225.075 22.1473 225.061 22.0463 225.228 21.8792L225.232 21.8827Z" fill="#FFFF1B"/>
</svg>
